<?xml version="1.0" encoding="UTF-8" standalone="no"?>
<!DOCTYPE svg PUBLIC "-//W3C//DTD SVG 1.1//EN" "http://www.w3.org/Graphics/SVG/1.1/DTD/svg11.dtd">
<svg width="100%" height="100%" viewBox="0 0 2400 2400" version="1.1" xmlns="http://www.w3.org/2000/svg" xmlns:xlink="http://www.w3.org/1999/xlink" xml:space="preserve" xmlns:serif="http://www.serif.com/" style="fill-rule:evenodd;clip-rule:evenodd;">
    <g transform="matrix(34.9852,0,0,34.9852,-5.23083,1.50924e-14)">
        <path d="M68.7,34.4C68.7,53.3 53.3,68.7 34.4,68.6C15.5,68.6 0.1,53.2 0.2,34.3C0.2,15.4 15.6,0 34.5,0.1C53.3,0.1 68.7,15.5 68.7,34.4Z" style="fill:rgb(112,56,59);fill-rule:nonzero;"/>
        <path d="M68.7,34.4C68.7,53.3 53.3,68.7 34.4,68.6C15.5,68.6 0.1,53.2 0.2,34.3C0.2,15.4 15.6,0 34.5,0.1C53.3,0.1 68.7,15.5 68.7,34.4Z" style="fill:none;fill-rule:nonzero;stroke:rgb(189,156,38);stroke-width:0.26px;"/>
        <path d="M65.2,34.4C65.2,51.4 51.4,65.2 34.4,65.2C17.4,65.2 3.6,51.4 3.6,34.4C3.6,17.4 17.4,3.6 34.4,3.6C51.4,3.6 65.2,17.4 65.2,34.4Z" style="fill:white;fill-rule:nonzero;"/>
        <path d="M65.2,34.4C65.2,51.4 51.4,65.2 34.4,65.2C17.4,65.2 3.6,51.4 3.6,34.4C3.6,17.4 17.4,3.6 34.4,3.6C51.4,3.6 65.2,17.4 65.2,34.4Z" style="fill:none;fill-rule:nonzero;stroke:rgb(189,156,38);stroke-width:0.2px;"/>
        <path d="M57.7,34.4C57.7,47.3 47.2,57.7 34.4,57.7C21.5,57.7 11.1,47.2 11.1,34.4C11.1,21.5 21.6,11.1 34.4,11.1C47.3,11.1 57.7,21.6 57.7,34.4Z" style="fill:none;fill-rule:nonzero;stroke:rgb(195,156,42);stroke-width:0.13px;"/>
        <path d="M56.7,34.4C56.7,46.7 46.8,56.7 34.5,56.7C22.2,56.7 12.2,46.8 12.2,34.5C12.2,22.2 22.1,12.2 34.4,12.2C46.7,12.1 56.7,22.1 56.7,34.4Z" style="fill:rgb(112,56,59);fill-rule:nonzero;"/>
        <path d="M55.2,27.6C53.6,22.8 48.5,20.1 43.6,21.6C43.5,16.6 39.4,12.5 34.3,12.5C29.3,12.5 25.2,16.5 25,21.5C20.2,20.1 15.1,22.7 13.6,27.5C12,32.3 14.6,37.4 19.3,39.1C16.4,43.2 17.4,48.9 21.5,51.9C25.6,54.9 31.3,54 34.3,50C37.3,54 43,54.9 47.1,51.9C51.2,48.9 52.1,43.2 49.3,39.1C54.1,37.6 56.7,32.4 55.2,27.6Z" style="fill:rgb(255,250,217);fill-rule:nonzero;"/>
        <path d="M34.8,13.9C34.9,14.3 34.8,17.1 34.7,18.3L34.7,23.8C34.8,23.3 34.9,23.1 34.8,22.6C35,22.7 35.1,23 35.1,23.3C35.2,22.8 35.5,21.6 35.1,20.4C35.3,20.5 35.6,20.6 35.7,22.2C35.8,21.7 36.1,19.9 35.4,19.6C35.4,19.6 36,19.8 36.1,20.3C36.2,19.7 36.3,19.3 36.5,19.1C36.4,19.7 36.5,20.4 36.5,20.7C36.7,19.9 37,18.7 37.6,18.2C37.3,18.8 37,19.7 36.9,20.6C36.9,20.6 37.2,20 37.3,19.1C37.3,19.1 37.4,19.6 37.4,19.8C37.5,19.4 37.9,18.3 38.2,17.9C38.4,17.4 38.4,17.5 38.5,17.2C38.5,17.5 38.4,17.7 38.3,18.1C38.2,18.4 38,19.4 37.9,19.7C38.2,19 39,17.6 39.6,17.2C39.3,17.7 38.9,18.1 38.4,19.7C37.9,20.2 36.2,21.8 35.2,24.1C34.8,25 34.7,27.3 34.7,29C34.7,29 34.9,28.5 35.1,28.2C35.1,27.5 34.9,26.3 34.7,26C35.1,26.4 35.4,26.7 35.4,27.4C35.4,26.3 35.2,24.9 34.9,24.4C35.3,25 35.5,25.2 35.5,25.6C35.6,25 35.5,24.9 35.5,24.6C35.7,24.9 35.9,25.2 36,25.8C35.9,24.8 35.9,24 36.4,23.2C36.2,23.9 36.1,24.8 36.3,25.3C36.4,25.6 36.5,25.6 36.5,25.1C36.5,24.6 36.4,23.7 37.3,22.3C37.1,23.1 36.9,23.4 37,24.5C37.3,23.7 38,21.9 38.6,21.5C38.3,22.1 37.8,23.1 37.6,24C37.8,23.7 38.1,23.3 38.1,23.2C38.3,22.7 38.8,21.6 39.7,21C39.4,21.4 38.7,22.5 38.5,23.1C39,22.4 40,21.4 41.4,21.1C40.8,21.5 39.7,22.4 38.9,23.2C39.8,22.9 40.2,22.7 40.9,23C40.4,23 39.3,23.3 38.8,23.6C39.3,23.5 39.8,23.4 40.2,23.7C39.8,23.7 38.5,24 37.9,24.4C38.4,24.3 39.2,24 39.5,24.3C39.1,24.3 38,24.6 37.4,25.1C38,24.9 38.4,24.8 38.8,24.7C38.2,25 37.4,25.5 36.8,26C37.4,25.7 38.2,25.3 38.8,25.4C38.3,25.6 37.1,26.1 36.7,26.5C37.4,26.1 38,25.9 38.9,25.9C38.3,26.1 36.7,26.7 36,27.6C36.4,27.4 36.9,27.1 37.5,27.2C37.1,27.4 34.8,28 34.9,31.2C35.2,30.8 36,29.8 36.5,29.5C36.6,28.8 36.7,27.8 37.1,27.5C37,28 36.9,28.6 37,29.1C37,29.3 37.2,29.2 37.2,29C37.2,28.6 37.4,27.3 38,26.5C37.8,27 37.6,27.7 37.6,28.6C37.6,28.9 37.8,28.8 37.9,28.5C37.9,28.5 38.1,26.7 38.7,26.2C38.6,26.7 38.4,27.5 38.4,28C38.4,28.2 38.7,28 38.7,27.6C38.8,27.1 39.1,26 39.9,25.1C39.6,25.8 39.3,26.3 39.2,27.3C39.2,27.5 39,27.8 39.4,27.2C39.6,26.7 39.9,25.2 41.4,24.1C41,24.5 40.5,25.5 40.1,26.7C39.9,27.2 40,27.1 40.5,26.5C40.8,25.8 42,23.8 42.7,23.5C42.7,23.5 41.5,25.1 41.2,26.1C41.1,26.4 41.2,26.4 41.6,25.8C42,25.2 42.6,23.6 44,23C43.6,23.4 42.6,24.7 42.4,25.3C42.3,25.6 42.6,25.4 42.6,25.4C42.7,25.3 42.9,25 43.1,24.7C43.4,24.2 44.5,22.9 45.4,22.6C45,22.9 44.1,23.7 43.5,24.9C43.8,24.8 44.1,24.6 44.3,24.3C44.6,24 45.5,22.8 46.6,22.6C46.6,22.6 45.1,23.6 44.7,24.4C44.4,24.6 44.2,24.8 44.7,24.6C44.9,24.4 45.4,24.2 45.6,23.9C45.8,23.7 46.9,22.7 48,22.7C47.5,22.9 46.4,23.6 45.7,24.2C45.9,24.2 46,24.1 46.3,23.9C46.6,23.7 48.1,22.7 49.3,23C48.5,23.2 48.1,23.3 48.1,23.3C47.8,23.4 47.4,23.7 46.9,24C46.9,24 49.7,23.1 50.3,23.9C50,23.8 49.4,23.7 48.6,24C49.3,24.1 51.8,24.3 52.6,25.4C52.1,25.2 50.8,24.5 49.2,24.5C49.9,24.9 50.5,25.7 50.6,26.1C50.6,26.1 49.2,24.8 48.2,24.5C48.7,24.7 49.8,25.3 50.1,26.6C49.8,26.2 48.6,24.9 47.4,24.6C47.8,24.8 49.2,25.7 49.5,27C49.1,26.5 47.7,25 46.7,24.9C47.4,25.4 48.4,25.9 48.8,27C48.5,26.8 48.1,26.3 48,26.1C46.9,25.3 45.4,24.9 45.6,25.1C45.6,25.1 48.2,26.3 48.2,27.6C47.7,26.8 47.5,26.7 47.4,26.6C46.6,26.3 46.2,25.6 44.7,25.4C44.7,25.4 46.3,26.1 47.3,27.5C47.3,27.5 45.1,25.6 43.7,25.8C43.7,25.8 46.3,26.4 46.4,28.4C46.2,28.1 45,26.2 43.1,26.2C44.3,26.6 44.9,26.9 45.5,27.9C45.5,28.2 45.5,29 45.3,27.7C45,27.7 44.8,27.4 44.4,27.2C44,26.9 42.9,26.6 42.2,26.8C42.9,27 44.4,27.5 44.8,28.4C45.1,28.7 45.3,28.9 45.3,29.1C45,28.8 44.7,28.5 44.6,28.3C44.4,28.2 44,27.9 43.9,27.8C43.6,27.7 43.3,27.5 41.4,27.3C42.5,27.4 43.8,27.6 44.6,29.5C44.2,29 42.5,27.1 40.4,28C41.5,28 43,28.5 43.7,29.5C43.7,29.5 42.5,28.5 39.9,28.4C40.3,28.5 40.5,28.6 40.6,28.6C41,28.6 42.5,28.7 43.3,30C42.6,29.5 41.5,28.9 39.7,29C39.4,29 39.1,29 38.9,29.1C39.5,29.1 40.8,29.1 41.8,30C41.2,29.7 38.9,29.4 38.3,29.5C39,29.6 40.6,30 41,30.4C40.6,30.3 40,30.1 39.8,30.1C39.4,30 37.1,29.9 36.3,30.9C36,31.3 35.4,31.9 35.2,32.6C35.6,32.2 35.8,31.9 37,31.5C37.3,31.3 38.4,31 38.1,30.2C38.3,30.3 38.7,30.8 38,31.3C38.3,31.2 38.5,31.1 38.7,31C38.9,30.9 39.7,30.4 40.3,30.3C39.9,30.5 39.2,31.1 39,31.3C39.2,31.3 39.4,31.2 39.5,31.2C39.7,31.1 40.6,30.6 41.7,30.5C41.1,30.8 40.4,31.1 40.1,31.3C40,31.4 39.8,31.6 40.3,31.5C40.6,31.4 41.6,30.5 42.8,30.5C42.2,30.8 41.5,31.1 41.1,31.5C40.9,31.7 41.2,31.8 41.4,31.6C41.6,31.4 41.9,31.2 42,31.2C42.2,31 42.6,30.6 44.4,30.6C43.8,30.8 42.7,31.2 42.1,31.6C41.9,31.7 41.8,32 42.5,31.8C42.9,31.5 44,30.8 45.7,31C45.1,31.1 43.8,31.4 43.1,31.9C42.9,32.1 43.1,32.1 43.4,32C43.4,32 45.4,31 46.8,31.6C46.4,31.6 44.7,31.7 43.9,32.3C44.3,32.3 44.9,32.3 45.2,32.2C45.6,32.1 46.7,31.8 47.5,32.1C47,32.1 45.5,32.3 45.2,32.5C45,32.6 45.2,32.7 45.4,32.6C45.6,32.6 47,32.2 48.4,32.8C47.8,32.8 46.3,32.7 45.8,32.9C45.6,33 45.7,33.2 46.2,33.1C46.6,33 48.1,32.7 49.1,33.4C48.3,33.2 47,33.3 46.6,33.4C47.3,33.4 48.2,33.4 48.9,33.9C48.3,33.8 47.5,33.7 47.2,33.8C47.8,34 49,33.9 49.9,34.9C49.3,34.6 48.4,34.3 47.7,34.3C47.5,34.3 47.7,34.5 48,34.6C48.4,34.6 49.4,34.7 50.3,35.7C49.7,35.4 48.8,35.1 48.4,35.1C49.2,35.5 49.8,35.7 49.9,36C50.1,36.2 50.5,36.5 50.6,36.7C50.2,36.4 49.3,35.9 49,35.8C49.2,36 50.2,36.8 50.6,38.6C50.3,38.2 49.3,36.7 49.1,36.4C49.3,37 49.4,37.6 49.5,37.7C49.2,37.3 48.6,36 48.1,35.5C48.2,35.9 48.6,37.3 48.8,37.4C48.3,36.8 47.8,35.8 47.5,35.2C47.4,34.9 47.1,34.8 47.1,34.7C47.4,35.1 47.7,35.8 47.7,37C47.6,36.7 47.5,36.2 47.5,36.2C47.3,35.9 47,35.3 47,35.2C46.8,34.9 46.4,34.4 46.4,34.4C46.4,34.7 46.5,34.9 46.5,34.9C46.6,35.1 46.7,35.3 46.8,35.5C46.9,35.8 47.1,36.2 47.2,36.3C46.7,35.8 46.5,35.7 45.8,34.2C45.7,33.7 45.6,33.8 45.5,33.8C45.6,34.2 46,35.8 46.4,36.4C46,36.1 45.5,35.3 45.2,34.2C45.1,33.8 44.8,33.5 44.6,33.5C44.8,33.9 45.2,34.7 45.2,35.4C45.2,35.7 45.3,36.3 45.3,36.3C45.1,35.7 44.4,33.5 43.6,33.1C44.1,33.6 44.2,34.3 44.2,36C44.2,36 43.9,33.2 42.3,32.6C42.6,32.9 43.4,33.7 43.3,35.3C43.2,34.8 42.6,33.2 41.8,32.7C42.1,33.2 42.5,33.8 42.4,34.8C42.3,34.4 41.9,32.8 41,32.5C41.4,32.9 41.8,33.3 41.7,34.3C41.5,33.8 40.8,32.4 40.2,32.4C40.6,32.8 41,33.1 41,33.9C40.7,33.4 40,32.4 39.4,32.3C39.8,32.7 40.2,32.9 40.3,33.7C40.1,33.4 39.6,32.5 38.3,32.2C38.7,32.4 39.3,32.8 39.3,33.4C39,33 37.7,31.8 36.5,32.3C36.1,32.5 35.4,33 35.1,33.7L35.1,34.1C35.5,34.1 36.3,34.1 37.1,34.6C37.5,34.8 37.6,34.8 37.8,34.6C38,34.5 39.2,34 40.1,34.2C39.5,34.3 38.6,34.5 38.2,34.9C38,35.1 38.2,35.2 38.6,35C39.1,34.8 39.9,34.3 41.8,34.3C41.1,34.5 39.5,34.8 39.1,35.3C38.8,35.6 39.1,35.5 39.3,35.4C39.5,35.3 40,35.1 40.2,34.9C40,35.1 39.6,35.5 39.5,35.6C40.2,35.3 41.5,34.5 42.7,34.8C42.2,34.8 41.1,35.1 40.1,35.9C39.9,36.1 39.9,36.2 40.4,36C40.9,35.8 42.4,35.3 43.5,36C42.9,35.9 41.7,35.8 40.6,36.4C40.4,36.6 40.7,36.6 40.9,36.5C41.2,36.4 43.1,36 44.3,36.6C43.7,36.6 41.9,36.6 41.5,36.9C41.3,37.1 41.5,37.2 41.8,37.1C42.1,37 43.8,36.6 44.9,37.5C44.3,37.3 43.1,37 42.3,37.5C41.8,37 42.1,37 42.2,37C42.6,37 44.3,36.8 45.6,38C44.8,37.7 43.8,37.3 42.8,37.5C42.6,37.6 42.7,37.7 43,37.8C43.5,37.8 45.5,37.9 46.4,38.8C45.8,38.6 45.2,38.3 43.9,38.3C43.4,38.3 43.6,38.4 43.9,38.5C44.2,38.5 44.9,38.6 45,38.7L44.1,38.7C44,38.7 44,38.9 44.3,38.9C44.6,38.9 46.2,38.9 47.2,39.8C46.6,39.6 45.5,39.2 44.8,39.3C45.1,39.4 46.3,39.8 47.3,40.6C46.7,40.3 45.3,39.8 45.1,39.9C45.3,40.1 45.4,40.2 45.7,40.3C46,40.4 47.5,40.9 48,42C47.6,41.7 46.6,40.9 46.2,40.9C45.9,40.9 46.2,41 46.4,41.1C46.6,41.2 47.5,41.7 47.8,42.1C48,42.4 48.2,42.6 48.4,42.7C48,42.4 47.9,42.4 47.7,42.1C47.5,42 46.9,41.6 46.7,41.6C47,42 47.2,42.1 47.6,42.3C47.8,42.5 48.5,43 48.7,43.8C48.4,43.4 47.8,42.9 47.5,42.7C47.5,42.9 47.6,43 47.7,43.1C47.9,43.3 48.5,43.9 48.7,44.6C48.5,44.3 48.4,44.1 48.3,44C48.1,43.9 48,43.6 47.8,43.5C47.9,43.8 48.2,44.7 47.6,45.6C47.7,45 47.6,44.3 47.5,43.8C47.5,44.1 47.4,44.4 47,44.6C47.2,44.2 47.4,43.6 47.1,42.9C47.1,43.2 47,44 46.5,44.3C46.7,44 47,43.1 46.5,42.1C46.5,42.4 46.4,42.8 46.3,43C46.3,43.2 46.2,43.6 45.9,43.7C46,43.4 46.5,42.4 45.6,41C45.7,41.4 45.9,42.6 45.2,43.2C45.3,42.8 45.5,41.1 45.1,40.7C45.2,41.1 45.4,42.5 44,43.1C44.4,42.6 45.3,41.3 44.1,39.6C44.1,39.6 44.1,41 43.7,41.5C43.7,40.9 43.8,39.3 43.1,38.8C43.2,39.5 43.4,40.9 42.7,41.7C42.8,41.1 43.1,39.3 42.4,38.4C42.5,39 42.4,40.3 42.2,40.8C42.2,40.2 42.3,38.6 41.6,37.8C41.8,38.4 42,39.6 41.5,40.4C41.5,39.6 41.4,38.2 40.7,37.2C40.8,37.6 41,38.8 40.5,39.7C40.5,39 40.4,36.8 39.4,36.2C39.7,36.8 40.3,38.1 39.9,39.4C39.9,38.6 39.3,36.8 38.6,35.9C38.9,36.6 39.3,37.5 38.6,38.7C38.7,38 38.4,36.1 37.6,35.3C37.7,35.6 37.8,36 37.8,36.6C37.9,36.8 38,37.4 38.1,37.5C37.9,37.2 37.4,36 37.1,35.1C36.9,34.8 36.8,34.7 36.6,34.6C36.4,34.5 35.9,34.2 35.1,34.3C35.1,35.6 35.3,37.5 35.5,38.4C35.7,39.3 36.1,41.4 35.6,43.2C35.5,43.8 35.6,44.4 35.7,45.1C35.6,45.8 35.6,46.2 35.8,47.1C35.7,47.8 35.7,48.2 35.9,49.1C35.9,49.1 35.9,50.7 36.4,51.4C36.4,51.4 36.4,51.5 36.2,51.4C36.1,51.3 35.9,51 35.7,50.6C35.3,50.8 34.8,49.9 34.5,49.6C34.7,49.6 35.3,49.5 35.6,49.4C35.7,49.4 35.6,49.2 35.6,49.2C34.8,49.4 33.9,49.4 33.3,49.3C33.3,50.3 33,51 32.8,51.3C32.7,51.4 32.5,51.4 32.5,51.3C32.6,51.1 32.9,50.7 32.8,49.1C33,48.1 33,47.7 32.8,47C32.9,46.3 33,45.8 32.9,45C33,44.3 33.1,43.9 33,43.1C32.5,41.4 32.7,39.2 32.9,38.2C32.9,38.2 33.4,36.1 33.3,34.8C33.1,35 33,35.1 32.9,35.3C33,35.6 33.1,36.4 32.3,37.4C32.4,37 32.6,36.4 32.6,35.7C32.6,35.5 32.4,35.6 32.2,35.9C32.1,36.2 32,37.6 32.3,38.5C32.1,38.3 31.7,37.8 31.7,36.4C31.7,36.2 31.5,36.4 31.5,36.7C31.5,37 31.4,37.9 31.7,38.4C31.8,38.6 31.9,39.1 31.8,39.5C31.8,39.1 31.5,38.6 31.4,38.4C31,38 31,37.6 30.9,37.2C30.8,37.4 30.7,38.2 30.9,38.6C31,38.9 31.2,39.8 30.9,40.3C30.8,39.9 30.8,39.4 30.7,39.1C30.7,39.1 30.4,38.3 30.4,38C30.4,38.5 30.5,39.8 30.6,40.5C30.5,40.3 30.1,39.7 30,38.8C30,38.5 29.9,38.1 29.8,38.5C29.8,38.9 29.7,40.4 30.1,41.5C29.9,41.2 29.5,40.7 29.4,39.3C29.4,39.1 29.3,39.2 29.3,39.5C29.3,39.8 29.3,42 29.6,42.5C29.2,41.5 29,40.9 28.9,39.9C28.9,39.6 28.8,39.9 28.8,40.2C28.8,40.5 28.8,41.7 28.7,42.1L28.7,42.8C28.5,42.5 28.3,41.8 28.3,40.7C28.2,41 27.9,41.7 28.2,43.5C28,43.2 27.7,42.8 27.8,41.7C27.7,42.3 27.5,43.6 27.6,44.2C27.4,43.2 27.1,42.5 27.7,41.2C28.2,40.1 29.8,37.3 32.9,34.6C32.9,34.3 32.9,33.9 32.1,34.1C31.6,34.2 30.7,34.7 30.2,35.2C30.2,35.2 29.8,36.5 29.5,37.3C29.6,36.6 29.7,35.8 29.6,35.4C29.4,35.8 29.1,36.9 29.1,37.4C29.1,37.7 29,38 28.9,38.1C28.9,37.7 28.9,37.4 28.8,37.3C28.7,37 28.7,36.6 28.8,36C28.7,36.5 28.3,37.3 28.3,38.8C28.1,38.5 27.8,37.7 28.1,36.4C27.9,36.6 27.3,37.1 27.6,40.1C27.4,39.8 26.9,39.2 27.1,37.3C26.9,37.9 26.8,39 26.8,40.5C26.5,39.8 26.3,39.2 26.6,37.5C26.4,37.7 26.1,38.2 26.3,40.1C26.3,40.3 26.4,40.6 26.4,41C26.3,40.7 25.9,40 25.9,38.1C25.7,38.6 25.3,40.2 25.8,42.2C25.5,41.7 25,40.5 25.2,39C25.1,39 25.1,39.1 25.1,39.4C25.1,39.7 25,41.9 23.7,42.8C23.8,42.6 24.5,42 24.6,39.5C24.4,39.7 23.6,40.6 24.4,43.2C24.4,43.2 23.8,42.7 23.7,40.5C23.6,40.7 23.5,40.7 23.5,41C23.5,41.3 23.6,42.8 22.5,44C22.7,43.4 23.1,43 23.1,41.2C23.1,41.2 22.5,42.3 22.1,43.9C22,44.6 21.7,45.4 21.5,45.5C21.6,45 21.8,43.5 21.8,43C21.5,43.8 21,45.7 20,46.5C20.3,45.9 20.7,45.5 20.9,44.6C21,44.2 21.3,43.5 21.3,43.3C20.9,43.7 20.1,44.8 19.9,45.1C20.1,44.5 20.8,43.2 21.6,42.3C21.1,42.7 20.4,43.3 20,43.8C20.4,43.1 21.5,42 21.9,41.7C21.6,41.8 21.1,42 20.3,42.7C20.6,42.3 21.3,41.6 21.9,41.3C22.2,41.1 22.4,40.9 22.5,40.8C22,40.9 20.6,41.6 19.9,42.2C20.1,41.8 21.1,40.7 22.8,40.3C22.1,40.4 21.4,40.5 20.3,39.6C20.9,39.9 22.4,40.2 23.4,39.5C23.4,39.5 21.8,39.8 20.9,40.6C21.2,40.1 22.7,39 24,38.8C23.6,38.8 22,39.2 21.6,39.4C22.5,39 23.5,38.6 24.4,38.5C24.7,38.5 24.6,38.3 24.7,38.3C24.7,38.3 22.7,38.3 21.9,38.8C22.2,38.4 23.5,37.7 25.1,37.7C24.7,37.6 24.1,37.6 22.8,38C23.3,37.7 24.6,37 26.1,37.1C25.9,37 25.8,37 25.7,37C26.1,36.9 26.4,36.9 26.6,36.8C26.2,36.7 25.1,36.7 24.3,37C24.6,36.7 25.4,36.3 26.5,36.2C26.3,36.1 26,35.9 26,35.5C26,35.5 26.9,36.3 28.2,35.7L26.8,35.7C27.2,35.5 27.8,35.3 28.6,35.2C28.9,35.2 29,35.1 29,35C28.6,35 27.9,35.1 27.4,35.3C27.7,35.1 28.5,34.6 29.6,34.7C29.8,34.7 30,34.6 30.1,34.6C30.1,34.6 31.3,33.8 31.7,33.6C32.1,33.4 32.6,33.3 32.9,33.4C32.7,32.9 32,31.8 30.3,31.9C30.8,31.4 32.3,31.7 32.9,32.5C32.9,32.5 32.8,31.8 32.7,31.6C32.3,31.3 31.7,31 30.7,31.1C30.1,31.2 29.5,32.2 29.2,33.3C29.2,33.3 29.2,32.3 29.7,31.4C29.2,31.7 28.3,32.5 28.1,34.5C28.1,34.5 27.5,33.2 28.4,31.8C27.9,32.2 27.3,32.5 26.8,35.1C26.7,34.3 26.9,33 27.4,32.1C26.9,32.4 26.4,32.9 26.4,35.3C26.4,35.3 25.8,34.3 26.3,32.7C26,33.1 25.8,33.2 25.7,34.1C25.6,34.5 25.3,35.5 25.1,36C25.2,35.3 25.3,34.2 25.3,34C25.3,33.6 25.5,33.3 25.5,33.2C25.1,33.6 24.1,34.7 24.4,36.9C24.4,36.9 23.8,36 24.1,34.3C23.8,35 23.4,36.5 23.4,36.5C23.5,35.7 23.6,34.3 23.9,33.7C23.6,34 23.1,35 22.9,37C22.8,36.5 22.6,35.8 23.1,34.2C22.7,34.8 22.2,35.4 22,38.1C21.7,37.2 21.5,36.5 22.2,34.7C21.9,35.1 21.6,35.7 21.4,36.3C21.3,37 21.1,38.4 20.8,39.2C20.8,39.2 20.7,37.5 21,35.7C20.6,36.8 20.3,37.4 20.1,39.4C19.9,38.7 19.7,37.8 20.5,35.9C20.1,36.6 19.7,37.6 19.5,38.6C19.4,38.2 19.4,37.8 19.4,37.6C19.4,37.6 19,38.3 18.7,38.9C18.7,38.9 18.6,38.8 18.5,38.8C18.6,38.3 18.7,37.6 19.3,37C18.7,37.3 18,37.9 17.5,38.3L17.4,38.3C17.7,37.9 18.4,37 19.6,36.2C19.2,36.3 18.1,36.7 17.7,36.7C18,36.5 19.6,35.7 19.8,35.6C19.4,35.7 18.8,35.7 17.8,36.2C18.1,35.9 19.1,35.3 20.5,35C20.5,35 19,35 17.5,35.7C18.1,35.3 18.9,34.8 21.1,34.4C21.3,34.4 21.4,34.3 21.1,34.3C20.9,34.3 20.2,34.3 19.8,34.4C20.3,34.2 20.9,33.9 21.6,33.8C21.3,33.7 19.9,33.8 18.8,33.9C19.2,33.7 20.5,33.2 22.4,33.3C22.6,33.3 22.9,33.2 22.5,33.2C22.1,33.2 21.4,33.2 21,33.1C21.4,33 21.7,32.9 22.7,32.9C22.9,32.9 22.9,32.8 22.6,32.8C22.3,32.8 20.6,32.9 19.8,32.8C20.2,32.7 20.8,32.5 23.1,32.4C22.8,32.3 21.7,32.1 20.4,32.2C20.8,32.1 22,31.7 23.9,32.1C24.5,32.2 24.7,32 24.1,31.8C23.9,31.8 21.8,31.4 21.3,31.4C22,31.3 23.5,31.2 24.9,31.6C25.1,31.7 25.4,31.6 25,31.5C24.6,31.4 23.8,31 22.4,30.9C22.4,30.9 24.3,30.6 25.8,31.3C25.9,31.4 26.3,31.3 26,31.1C25.6,30.9 24.7,30.6 24.3,29.9C24.6,30.1 25.9,30.8 27.2,30.9C26.9,30.8 25.9,30.4 25.8,29.7C26,30 26.7,30.7 28.6,30.6C28.8,30.6 29,30.5 28.6,30.5C28.3,30.4 28,30.2 26.9,30.2C27.3,30.1 28.5,30.1 29.5,30.4C29.5,30.4 29.3,30.2 28.9,30C29.3,30 29.6,29.9 30.4,30.4C30.4,30.4 31.5,30.2 32.2,30.6C31.9,30.3 31.7,29.9 30.9,29.5C30.6,29.4 29.3,29.3 28.6,30.4C28.7,29.8 29.1,29.3 29.7,29.1C29.3,29.2 29.7,29.1 29.7,29.1C29.7,29.1 28.3,29.3 27.3,30.4C27.5,29.9 28.2,29.1 29.2,28.8C28.8,28.8 27.5,29 26.2,30.4C26.3,30 26.9,28.9 28.2,28.4C27.9,28.5 27,28.7 26.4,29.4C26.2,29.7 25.7,30.3 25,30.3C25.4,30 25.7,29.6 26,29.2C26.2,28.9 26.8,28.2 27.3,28C26.9,28.1 25.8,28.3 24.7,30.1C24.8,29.5 25.1,28.6 26.4,27.8C26.4,27.8 26.6,27.6 26.3,27.7C26.1,27.8 24.9,28.3 24,30.2C24,29.7 24.2,28.7 25.3,27.6C24.9,27.8 23.9,28.3 23,30.1C23,29.6 23.2,28.4 24.8,27.4C24.4,27.6 23.4,27.9 22.1,30C22.3,29.4 23,28.1 23.9,27.4C23.9,27.4 24.2,27.2 23.8,27.3C23.6,27.4 22.4,27.9 21.3,30.1C21.4,29.6 21.9,27.7 23,27.1C22.7,27.2 21.3,27.9 20.5,29.8C20.5,29.5 20.8,28.1 21.9,27.1C22,27 22,26.9 21.7,27.1C21.4,27.3 20.1,27.9 19.5,29.5C19.5,29.2 19.4,28.9 19.5,28.7C19.6,28.5 20.1,27.5 20.9,26.9C21,26.9 21,26.8 20.7,26.9C20.7,26.9 19,27.7 18.2,29.9C18.2,29.6 18.6,28.3 19.1,27.6C19.2,27.5 19.3,27.3 19.4,27.2C19.5,27 19.7,26.9 20,26.8C20,26.7 19.9,26.6 19.6,26.8C19.6,26.8 18.3,27.6 17.9,29.1C17.9,28.6 18,27.8 18.6,27.1C18.2,27.5 17.2,28.4 16.6,29.5C16.7,29 17.1,28 17.7,27.4C17.1,27.7 15.9,28.3 15,30.1C15.1,29.7 15.4,28.4 16.6,27.3C16.2,27.4 14.7,28.3 14.3,28.4C14.7,28 15.7,27 17.4,26.6C17,26.6 16.2,26.5 15.4,26.5C15.7,26.4 16.3,26.2 18.5,26.3C18.5,26.3 18.2,26 16.4,25.9C16.7,25.8 18.1,25.5 19.4,26.1C19.5,26.2 20,26.3 19.7,26C19.4,25.9 18.5,25.5 17.3,25.3C18,25.3 19.3,25.2 20.8,26C21,26.1 21.7,26.2 21.2,26C20.7,25.7 19.6,25.1 18.3,24.8C18.8,24.8 20.4,24.8 22.1,26C22.3,26.1 22.3,26.1 22.2,25.9C21.9,25.6 21.2,24.9 20,24.4C20.3,24.4 21.5,24.6 22.8,25.8C23,26 23.9,26.5 23.5,26C23.1,25.6 22.5,24.8 21.4,24C21.9,24.2 23.1,24.7 24.2,26.1C24.4,26.3 24.6,26.5 24.6,26.2C24.5,26 24,24.8 22.3,24.7C22.5,24.6 24.2,24.2 25.1,26.2C25.2,26.5 25.6,26.8 25.6,26.4C25.5,26.1 25,24.5 24.1,23.8C24.1,23.8 25.4,24.2 26.1,26.2C26.2,26.6 26.6,27 27,27.1C26.7,26.8 26.1,26.2 25.6,24.4C25.9,24.9 26.9,26.5 27.8,27.2C27.9,27.4 28,27.3 27.9,27.2C27.8,26.9 27.3,26.3 26.9,25.8C26.7,25.7 26.3,25.3 26.2,25C26.5,25.2 26.6,25.3 26.8,25.4C27,25.5 27.9,26.3 28.7,27.6C28.6,27.1 28.3,26.4 28.7,25.4C28.7,26 29.1,27.8 29.9,28.4C30,28 29.9,27.5 30,26.5C30.1,27.1 30.3,28.3 31,28.8C31,28.8 30.6,28.2 31,27C31,27.4 31.1,28.6 31.7,29.2C31.9,29.4 32.8,30 32.9,30.3C32.7,29.8 32.3,29.2 32.6,28.4C32.6,28.4 33.1,30.2 34,30.9C34,30.5 34,28.9 33.6,28.9C33.3,28.8 32.5,28.6 32.1,28.2C32.4,28.3 33.3,28.3 33.5,28.4C33.1,28.1 32.7,28.1 32.4,28C32.4,28 31.8,27.8 31.4,27.8C31.7,27.7 32.1,27.5 33.2,27.8C32.8,27.6 32.3,27.2 30.8,27.1C31.1,27 31.7,26.7 32.9,27.2C32.5,27 32,26.8 31.2,26.7C30.9,26.7 30.1,26.7 29.7,26.4C30.4,26.4 32.1,26.3 32.8,26.6C32,26 31.3,25.7 29,25.9C29,25.9 30,25.2 31.7,25.6C31.9,25.7 31.9,25.5 31.7,25.4C31.4,25.3 29.8,24.8 28.3,25.4C28.6,25.2 29.4,24.6 31.1,24.8C30.6,24.7 29.6,24.5 27.8,24.6C28.4,24.4 29.2,23.9 31,24.3C30.6,24.1 29.2,23.5 27.1,24.2C27.1,24.2 28.7,23 30.1,23.5C29.7,23.3 28.4,23.1 27.1,23.5C27.5,23.3 28.1,22.9 29.4,22.9C29,22.8 28.2,22.7 26.7,23.2C27.2,22.9 27.8,22.4 28.8,22.4C28.3,22.3 27,22 25.2,22.6C25.4,22.4 26.3,21.8 27.2,21.8C26.8,21.8 25.8,21.7 24.4,22.1C24.7,21.8 25.4,21.5 26.1,21.5L24.9,21.5C24.4,21.5 23.8,21.7 23.3,21.9C23.4,21.8 23.8,21.6 24.4,21.4C24.5,21.4 24.7,21.5 24.9,21.5L25.1,21.5L25.1,21.3C26.1,21.1 27.5,21.3 29.1,22.2C28.8,21.7 28,20.8 27.1,20.2C27.5,20.4 28.8,20.9 29.9,22.5C29.9,22.5 29.7,21.5 28.6,20.4C29,20.7 30,21.5 30.6,23C30.6,22.6 30.2,21.4 29.5,20.6C29.8,20.8 30.8,21.5 31.2,23.6C31.2,23.1 30.9,21.7 30.6,21.3C31.1,22 31.5,22.4 31.7,23.9C31.7,24.1 31.9,24.5 31.9,24C31.9,23.5 31.8,22.1 31.4,21.5C31.8,22 32.4,23 32.4,24.5C32.4,24.5 32.5,25.5 32.6,24.7C32.6,24.4 32.7,23.2 32.3,22.4C32.5,22.7 33.1,23.5 33.1,25.5C33.1,25.7 33.2,25.9 33.2,26C33.3,26.1 33.4,26.4 33.4,25.9C33.4,25.5 33.5,24.6 33.3,24.3C33.5,24.5 34,25.1 33.8,26.6C33.8,26.8 33.8,27.2 33.9,27C34,26.9 34.1,26.6 34.1,26.4C34,25.9 33.8,21.8 31.3,19.4C31,18.7 30.7,17.7 29.4,17.1C29.8,17.2 30.8,17.6 31.5,18.7C31.3,18.1 30.9,17.2 30.5,16.8C31.2,17.5 31.8,18.3 32.2,19.7C32.3,20 32.4,20.3 32.4,19.9C32.3,19.5 32,18.2 31.8,17.7C32.2,18.4 32.6,19.1 33,21C33.1,21.2 33.1,21.3 33.1,21C33.1,20.6 33.2,19.9 32.9,19.1C33.2,19.5 33.6,19.7 33.5,21.9C33.5,22.2 33.5,22.5 33.6,22.1C33.7,21.7 33.8,21 33.7,20.3C33.9,20.8 34,21.6 33.9,22.8C33.8,23.2 34,23.8 34,24C34,24 34.2,22.6 34,21.6C34.1,21.9 34.3,22.1 34.3,22.6C34.2,22.2 34.2,15.3 34.8,13.9Z" style="fill:rgb(189,156,38);fill-rule:nonzero;"/>
        <path d="M33.4,43.7C34.1,43.9 34.6,43.8 35.2,43.6C35.3,43.6 35.3,43.7 35.2,43.7C35.1,43.7 34.8,43.9 34.2,43.9C34.2,44.2 34.3,44.6 34.2,45C34.6,45 34.9,45 35.3,44.8C35.4,44.7 35.4,44.9 35.4,44.9C35.3,44.9 34.5,45.3 33.3,45C33.4,44.6 33.5,44.3 33.4,43.7Z" style="fill:white;fill-rule:nonzero;"/>
        <path d="M33.7,33C33.9,36.4 33.6,37.3 33.2,40.1C33.1,41.4 33.2,42.8 33.7,42.9C34.2,43 34.2,42.7 34.1,42.3C33.7,40.4 34.1,39.3 34.1,36.4C34.2,32.4 34.4,26.3 34.3,25.8L34.3,24.1C34.2,24.4 34.1,24.1 34,23.7L34,25.1C33.9,24.8 33.8,24.6 33.7,24.4C33.9,25 33.9,26.1 33.9,26.4C33.9,27.1 33.8,27.7 33.8,27.7C33.7,27.8 33.5,27.4 33.3,27.1C32,24.8 30.5,23.4 29.3,22.4C29.3,22.4 31.8,24.5 33.2,27.3C33.5,28 33.8,28.1 33.9,30.8C33.8,31.7 33.6,31.7 33.1,31C31.6,28.9 25.3,25.1 18.2,26.7C23.4,25.9 28.9,27.2 32.4,30.5C33.1,31.2 33.6,31.7 33.7,33Z" style="fill:rgb(250,250,250);fill-rule:nonzero;"/>
        <path d="M32.6,31C31.2,30.3 25.4,30.8 19.7,36.5C24.5,31.8 30.6,30 32.7,31.2C32.7,31.1 32.6,31 32.6,31Z" style="fill:rgb(250,250,250);fill-rule:nonzero;"/>
        <path d="M33.2,33.6C32.3,33.2 31,34 26.6,37.5C26.6,37.5 23.8,39.6 22.6,41.8C24.6,39.1 26.7,37.6 28.9,35.9C29.8,35.3 32.6,32.9 33.3,33.9C33.2,33.8 33.2,33.6 33.2,33.6Z" style="fill:rgb(252,250,234);fill-rule:nonzero;"/>
        <path d="M34.7,29.5C35.4,27.9 36.8,24.4 38.7,23.1C38.7,23.1 36.6,24.6 34.7,30.1C34.6,29.9 34.7,29.5 34.7,29.5Z" style="fill:rgb(252,250,234);fill-rule:nonzero;"/>
        <path d="M34.8,31.5C35.9,29.7 40,27.2 42.3,25.8C44.2,24.8 46.1,24.2 48.2,24.1C46.6,24.3 44.8,24.6 42.7,25.6C40.3,27 35.3,30 34.7,31.9L34.8,31.5Z" style="fill:rgb(250,250,250);fill-rule:nonzero;"/>
        <path d="M35,32.4C35.4,31.9 36.2,31.1 38.5,31.2C40.3,31.3 45.1,32 48.2,34.9C46.9,33.9 45.2,32.5 41,31.6C39.5,31.3 36.1,30.6 34.9,32.7C35,32.6 35,32.4 35,32.4Z" style="fill:rgb(250,250,250);fill-rule:nonzero;"/>
        <path d="M35,33.8C36.6,33.6 40.5,36.2 42.6,37.9C43.6,38.8 45.8,40.2 47.5,43.1C45.4,40.2 43.9,39.1 42.1,37.7C41.5,37.2 36.6,33.4 35,34.1L35,33.8Z" style="fill:rgb(250,250,250);fill-rule:nonzero;"/>
        <path d="M33.4,45.5C34.1,45.6 34.7,45.6 35.3,45.4C35.4,45.3 35.4,45.5 35.4,45.5C35.2,45.6 34.9,45.7 34.3,45.7L34.3,46.9C34.7,46.9 35,46.8 35.4,46.7C35.5,46.6 35.5,46.8 35.5,46.8C35.4,46.9 34.5,47.3 33.3,46.9C33.4,46.6 33.5,46.1 33.4,45.5Z" style="fill:rgb(250,250,250);fill-rule:nonzero;"/>
        <path d="M33.3,47.4C33.4,47.9 33.4,48.4 33.3,49.1C33.3,49.1 34.4,49.4 35.5,49C35.6,48.9 35.5,48.8 35.4,48.8C35.2,48.9 34.9,49 34.3,49L34.3,47.7C34.7,47.7 35.2,47.6 35.5,47.5C35.6,47.4 35.6,47.3 35.5,47.3C34.9,47.4 34.3,47.6 33.3,47.4Z" style="fill:rgb(250,250,250);fill-rule:nonzero;"/>
        <path d="M11.5,25.6C11.5,25.5 11.5,25.5 11.4,25.4L11,25.3L10.1,27.5L9.6,27.3L10.5,25.1L10.2,25L10.4,24.8L10.2,24.3L9.5,26L9.1,25.8L10.1,23.5C10.2,23.4 10.3,23.4 10.4,23.5L10.5,23.5L10.6,23.6L10.8,24.6L11.6,22.6L12.1,22.8L11.3,24.8L11.8,25C11.9,25.1 12,25.2 12.1,25.4L11.8,26.2L11.4,26.2L11.4,26.1L11.5,25.6ZM9.3,23.9L8.9,24.1L9,24.6L9.3,23.9ZM7.5,23.2L8,22.9L8.2,23.2L7.6,23.5L7.8,24.2L7.5,24.4L7.3,23.8L7,24L6.9,24.1L6.7,23.8L7.2,23.4L7,23L7.4,22.8L7.5,23.2ZM9.3,23.8L9.7,22.7L9.4,22.6L9.1,23.4L8.7,23.2L9,22.4L8.7,22.3L8.4,23L8,22.9L8.3,22.2L8,22L7.7,22.8L7.3,22.6L7.8,21.3L9.9,22.2L10.1,21.8L11.2,22.3L11,22.8L10.3,22.5L8.7,26.4L9.4,26.7L9.2,27.3L8.1,26.8L8.3,26.3L6.2,25.5L6.7,24.2L7.1,24.4L6.8,25.2L7,25.3L7.3,24.5L7.7,24.7L7.4,25.5L7.7,25.6L8,24.8L8.4,25L8.1,25.8L8.4,25.9L8.8,24.9L8.7,24.9L8.6,24.4L8.2,24.7L8,24.3L8.4,24L8.2,23.5L8.5,23.4L8.6,23.8L9,23.5L9.3,23.8Z" style="fill:rgb(52,43,43);fill-rule:nonzero;"/>
        <path d="M16.6,12.9L18.4,11.4L18.7,11.8L17,13.2C17.3,13.5 17.8,13.7 18.5,14C19.2,14.2 19.9,14.2 20.6,14L20.6,14.5L20.5,14.5C20.2,14.5 19.9,14.6 19.7,14.6C19.4,14.6 19.1,14.6 18.8,14.5C18.3,14.4 17.8,14.1 17.3,13.9C17.5,14.5 17.6,15.2 17.5,15.8C17.4,16.4 17.3,16.9 17.1,17.5L17,17.5C16.9,17.5 16.7,17.4 16.5,17.4C16.6,17.1 16.7,16.7 16.8,16.4C16.9,16.1 16.9,15.8 16.9,15.5C16.9,14.8 16.7,14.2 16.4,13.6L14.6,15.1L14.3,14.7L16.1,13.2L15.1,12L15.6,11.7L15.8,11.7L15.8,11.9L16.6,12.9Z" style="fill:rgb(52,43,43);fill-rule:nonzero;"/>
        <path d="M29.1,7.8L29.1,7.9L29.4,7.8L29.4,7.7L29.1,7.8ZM28.6,7.5L29.7,7.3L29.9,8.2L28.8,8.5L28.6,7.5ZM28.5,7.1L29.5,6.9L29.6,7.2L28.6,7.4L28.5,7.1ZM28.4,6.7L29.4,6.5L29.5,6.8L28.5,7L28.4,6.7ZM28.1,5.7L29.2,5.4L29.3,5.8L28.2,6L28.1,5.7ZM28.2,6.6L28.1,6.2L29.4,5.9L29.5,6.1L29.6,5.8L29.7,5.9L29.8,5.5L30,5.2L30.4,5.3C30.5,5.3 30.5,5.3 30.5,5.4C30.5,5.4 30.5,5.5 30.4,5.5L30.2,6.1L30.3,6.2L30.6,5.7L31,5.9C31,5.9 31,6 30.8,6C30.7,6.2 30.6,6.5 30.5,6.7L30.7,6.7L30.6,6.5L30.9,6.3L31.3,7L30.9,7.2L30.9,6.9L30.7,7L30.8,7.3L31,7.1L31.4,7.7L31,7.9L31,7.7L30.8,7.4L30.9,8L30.5,8.1L30.4,7.6L30.4,7.9C30.4,8 30.4,8.1 30.3,8.2L29.9,8.1C29.9,8 29.9,7.9 30,7.7L30,7.4L30.4,7.5L30.3,7.2L30,7.2C30,7.3 29.9,7.3 29.9,7.3C29.9,7.3 29.8,7.3 29.8,7.2L29.6,6.9L30,6.8L30.1,6.6L29.5,6.4L28.2,6.6ZM28.3,10.6L27.8,10.6L27.9,9.3L30.7,8.7L30.7,8.6L27.8,9.2L27.7,8.7L31,8L31.2,9L28.3,9.6L28.3,9.8L31.1,9.2C31.3,9.1 31.5,9.2 31.5,9.3L31.5,9.5L31.3,10.1C31.2,10.4 30.9,10.5 30.6,10.6L29.9,10.8C29.8,10.8 29.8,10.8 29.8,10.7L29.6,10.4L30.3,10.2C30.5,10.2 30.6,10.1 30.7,9.9L30.7,9.8L30.8,9.7L28.2,10.3L28.3,10.6ZM27.6,8L27.6,8.2L27.5,8.5L27.5,8.9L27,8.8L27.2,8L27.6,8ZM27.7,5.9C27.8,5.9 27.8,6 27.8,6C27.8,6 27.8,6.1 27.7,6.1L27.4,6.6L27.5,6.7L27.7,6.3L28.1,6.5L28.1,6.6C28.1,6.6 28.1,6.7 28,6.7L27.8,7L27.7,7.3L27.9,7.2L27.9,7.1L28.2,6.9L28.6,7.5L28.3,7.7L28.2,7.5L28,7.6L28,7.9L28.3,7.7C28.4,7.9 28.6,8.1 28.7,8.3L28.4,8.5L28,8L28.1,8.6L27.7,8.7L27.5,7.7L27.1,7.8C27.1,7.9 27,7.9 27,7.9L26.8,7.6L27.2,7.4L27.4,7C27.2,6.9 27,6.8 26.8,6.7L27,6.3L27.1,6.4L27.4,5.8L27.7,5.9ZM27.1,9.1L27.1,10.1C27.1,10.5 27.1,10.8 27,11.1L27,11.4C27,11.4 26.9,11.4 26.8,11.3L26.5,11.1C26.6,10.8 26.6,10.4 26.7,10C26.7,9.9 26.7,9.7 26.8,9.4L26.8,8.8L27.1,9.1ZM25.9,7.5C26,7.5 26.1,7.6 26.2,7.6C26.3,7.6 26.4,7.7 26.5,7.7C26.6,7.8 26.8,7.8 26.9,7.9L26.7,8.4C26.4,8.3 26.1,8.1 25.8,8L25.9,7.5ZM25.8,6.1C26.2,6.3 26.5,6.4 26.7,6.5L26.5,7C26.3,6.8 26,6.7 25.6,6.6L25.8,6.1Z" style="fill:rgb(52,43,43);fill-rule:nonzero;"/>
        <path d="M41,9.1L40.8,9.4L42.4,9.8L42.2,9.4L41,9.1ZM43.1,8.1L40.6,7.4L40.6,7.5L43.1,8.2L43.1,8.1ZM43.7,7.9L43.5,8.7L40,7.7L40.2,7L43.7,7.9ZM44.7,6.9L44.6,7.3L42.4,6.7L42.3,6.9L44.2,7.4L44.1,7.8L39.7,6.6L40,6.3L41.9,6.8L42,6.6L39.8,6L39.9,5.6L42,6.2L42.1,5.9L42.7,6.1C42.8,6.1 42.8,6.2 42.8,6.2L42.7,6.3L42.7,6.4L44.7,6.9ZM39.6,8.3L39.4,9L38.9,8.9L39.2,7.8L44.2,9.2L43.9,10.2L43.4,10L43.6,9.4L39.6,8.3ZM43.4,9.5L43.3,9.8L42.7,9.6L43.1,10.5L42.7,10.5L42.5,10.1L41.5,9.9L41.4,10.3L43.1,10.8L43,11.1L41.3,10.6L41.2,10.9L43.4,11.5L43.3,11.9L38.4,10.5L38.5,10.1L40.7,10.7L40.8,10.4L39.1,9.9L39.2,9.5L40.9,10L41,9.9L39.7,9.6C39.7,9.7 39.6,9.7 39.6,9.7C39.6,9.7 39.5,9.6 39.5,9.5L39.5,9.1L40.3,9.3L40.6,9L39.7,8.8L39.8,8.5L43.4,9.5Z" style="fill:rgb(52,43,43);fill-rule:nonzero;"/>
        <path d="M55.5,15.7L52,12.4L52.4,12L53.9,13.4L54.6,12.7L55,13.2L55,13.3L54.8,13.3L54.3,13.8L55.9,15.3L55.5,15.7ZM51.4,15.8L50.9,15.5C51.4,14.8 51.8,14.1 52,13.4L52.6,13.6C52.2,14.4 51.8,15.1 51.4,15.8ZM49.2,15.1L49.6,14.7L51.6,16.6C52.1,16.4 52.5,16.1 52.9,15.9C53.3,15.6 53.8,15.3 54.2,15L54.5,15.5C54.6,15.6 54.6,15.7 54.5,15.7L54.3,15.7C53.5,16.3 52.7,16.7 52,17.1L53.4,18.4L53,18.8L49.2,15.1Z" style="fill:rgb(52,43,43);fill-rule:nonzero;"/>
        <path d="M58.8,23.1L59,23.7L59.5,23.5L59.3,22.9L58.8,23.1ZM58.2,22.9L59.4,22.4L60,23.8L58.8,24.3L58.2,22.9ZM61.1,25.3L60.7,24.3C60.5,24.4 60.2,24.5 59.9,24.7C59.7,24.8 59.5,25 59.3,25.1C59.7,25.1 60.1,25.1 60.6,25L60.6,25.4C60.6,25.5 60.6,25.5 60.5,25.6C60.5,25.6 60.4,25.6 60.4,25.5L58.8,25.5C58.7,25.5 58.7,25.6 58.6,25.8C58.6,25.9 58.8,25.9 59.2,25.9L59,26.3L58.3,26.3C58.2,26.3 58.1,26.2 58.1,26.1L58.1,25.9C58.1,25.7 58.2,25.5 58.4,25.3C58.1,25.2 57.8,25.1 57.6,24.9C57.7,24.8 57.7,24.6 57.8,24.5L57.9,24.5C58,24.6 58.1,24.7 58.3,24.7C58.4,24.8 58.6,24.8 58.8,24.9C59.1,24.7 59.4,24.4 59.7,24.3C60,24.1 60.4,23.9 60.7,23.8L60,22L60.4,21.8L61.1,23.5L61.6,23.3L61.7,23.7L61.7,23.9L61.5,23.9L61,24.1L61.2,24.6C61.2,24.6 61.3,24.5 61.3,24.4C61.3,24.3 61.4,24.3 61.4,24.2L61.7,24.4C61.7,24.5 61.6,24.7 61.5,24.7C61.4,24.8 61.4,24.9 61.3,24.9L61.4,25.1L61.1,25.3ZM58.3,24.6L57.5,23.4C57.4,23.4 57.3,23.3 57.3,23.3C57.3,23.3 57.3,23.2 57.4,23.1L57.8,22.9L58.7,24.4L58.3,24.6ZM56.7,23.2L58.2,26.8L62.2,25.2L60.7,21.6L56.7,23.2ZM56.1,23.4L55.9,22.9L60.9,20.8L62.8,25.4L57.8,27.5L57.6,27L57.8,26.9L56.3,23.3L56.1,23.4Z" style="fill:rgb(52,43,43);fill-rule:nonzero;"/>
        <path d="M62,42.5L62.5,42.6C62.7,42.7 62.9,42.9 62.8,43.1L62.7,43.6L62.3,43.6L62.3,43.5L62.4,43.1L62.4,43C62.4,43 62.3,43 62.3,42.9L62,43L61.9,43.9C62,44 62,44.1 62,44.1L61.9,44.2L61.4,44.2L61.6,43L61.1,42.9L61.1,42.8L60.9,42.4L60.5,44L60,43.6L60.6,41.5C60.7,41.4 60.8,41.3 60.9,41.4C61,41.4 61,41.4 61,41.5L61.4,42.4L61.5,42.4L61.6,41.3L62,41.5L62,42.5ZM59.9,39.2L59.7,39.9L60.1,40.2L60.1,40C61,40.1 61.6,40.2 62,40.2C61.6,40 61.2,39.8 60.9,39.6C60.5,39.4 60.2,39.3 59.9,39.2ZM59.2,42.6L59.5,42.7L59.8,41.6L59.5,41.5L59.2,42.6ZM58.6,43L59.2,40.9L60.4,41.3L59.8,43.4L58.6,43ZM60,38.7C61.1,39.1 61.9,39.5 62.5,39.9C62.7,39.8 62.9,39.7 63.1,39.6C63.3,39.5 63.5,39.3 63.7,39.1L64,39.5C63.8,39.7 63.6,39.8 63.4,39.9C63.2,40 63,40.1 62.8,40.2C63,40.6 63.2,41.1 63.3,41.7L62.9,41.9C62.8,41.4 62.7,41 62.3,40.5C61.8,40.6 61.1,40.6 60.3,40.4L60.4,40.5L60.1,40.9C59.5,40.4 58.9,39.9 58.1,39.5L58.4,39C58.4,38.9 58.5,38.9 58.5,38.9C58.5,38.9 58.6,39 58.6,39.1L59.2,39.4L59.6,37.9L60.1,38L60,38.7ZM57.6,41.8L57.8,41.3C57.8,41.2 57.9,41.2 57.9,41.2L58,41.3L58,41.4L58.3,41.5L58.6,40.5L59,40.6L58.2,43.3L57.8,43.2L58.1,42L57.6,41.8Z" style="fill:rgb(52,43,43);fill-rule:nonzero;"/>
        <path d="M58.7,47.7L58,48.7L59.1,49.4L59.8,48.4L58.7,47.7ZM59.6,49.7L59.9,49.9L59.6,50.4L57.4,49L58.7,47.1L60.9,48.5L60.6,49L60.3,48.8L59.6,49.7ZM57.2,50.1L56.5,51.1L57.6,51.8L58.3,50.8L57.2,50.1ZM58,52L58.3,52.2L58,52.7L55.8,51.3L57,49.4L59.2,50.8L58.9,51.3L58.7,51L58,52ZM56,47L54.8,48.8L55.8,49.4L57,47.6L56,47ZM56.2,49.7L56.4,49.8L56.1,50.3L54.1,49L55.9,46.3L57.9,47.6L57.5,48L57.3,47.9L56.2,49.7Z" style="fill:rgb(52,43,43);fill-rule:nonzero;"/>
        <path d="M51.1,55.4L50.7,55.7L51,56L51.4,55.7L51.1,55.4ZM50.5,52.5L50.9,52.3L51,52.3L51,52.4L51.7,53.3L52.4,52.7L53.2,53.7C53.3,53.8 53.4,53.9 53.5,54.1C53.7,54.4 53.9,54.6 53.9,54.7C53.9,54.8 54.1,55 54.5,55.6C54.6,55.9 54.6,56.2 54.5,56.4L54.2,56.6L54,56.6L53.8,56.4L53.7,56.4C53.7,56.4 53.7,56.3 53.8,56.3L54,56.2C54.1,56.1 54.1,56 54,55.8C53.7,55.4 53.5,55.1 53.5,55C53.4,54.9 53.3,54.8 53.2,54.6C53.1,54.4 52.9,54.2 52.7,53.9C52.5,53.6 52.4,53.5 52.3,53.4L52,53.7C52.3,54.1 52.5,54.4 52.7,54.6C52.8,54.7 52.9,54.8 52.9,55C53,55.1 53.1,55.3 53.2,55.5C53.5,56 53.7,56.5 53.8,57L53.4,57C53.4,57 53.4,56.9 53.3,56.9L53.3,56.7C53.1,56.2 52.8,55.6 52.5,55.1L52.2,54.7L51.7,54L51.3,54.3L51,54L51.4,53.7L50.5,52.5ZM50.7,54.9L50.3,55.2L50.5,55.5L50.9,55.2L50.7,54.9ZM50.4,56L50,56.2L50.2,56.5L50.5,56.2L50.4,56ZM50,55.5L49.7,55.8L49.9,56.1L50.2,55.8L50,55.5ZM50,54.7L49.5,55L49.7,55.2L50.1,54.9L50,54.7ZM49.7,54.4L49.5,54.1L49.9,53.9L50,53.9L50,54L50.1,54.1L50.6,53.7L50.8,54L50.3,54.4L50.5,54.6L50.9,54.3L52,55.7L51.3,56.3L51.5,56.5L52.4,55.8L53.2,56.8C53.4,57.1 53.4,57.3 53.3,57.5L53,57.8C52.9,57.9 52.9,57.9 52.8,57.8L52.5,57.7C52.5,57.7 52.5,57.6 52.6,57.6L52.8,57.4C52.9,57.3 52.9,57.2 52.8,57.1L52.3,56.5L51.7,56.9L51.9,57.2L52,57L51.9,57L52,56.7L52.6,57C52.6,57.2 52.5,57.3 52.5,57.3L52.3,57.2L51.6,58L51.6,58.2L51.5,58.2L51.2,58L51.5,57.6L51.2,57.2L50.7,57.6L51.6,58.7L51.2,59L50.1,57.6L51,56.9L50.8,56.7L50.1,57.3L49,55.8L49.3,55.5L49.1,55.3L48.6,55.7L48.4,55.4L49,55L48.8,54.7L49.2,54.5L49.3,54.5L49.3,54.6L49.4,54.7L49.7,54.4ZM48.2,55.1L49.5,56.8L50.3,58C50.5,58.3 50.6,58.5 50.7,58.7C50.8,58.9 50.8,59.1 50.9,59.3L50.5,59.3C50.5,59.3 50.4,59.3 50.4,59.2L50.4,59.1C50.3,58.9 50.2,58.6 50,58.2C49.9,58 49.8,57.8 49.7,57.6C49.6,57.4 49.4,57.2 49.2,57L47.6,55L50.1,53L50.3,53.3L48.2,55.1Z" style="fill:rgb(52,43,43);fill-rule:nonzero;"/>
        <path d="M43.4,59.6L42.9,59.4L42.6,59.8L43.4,59.6ZM42.7,57.9L43.3,58.1L43.2,58.5L42.6,58.3L42.2,58.9L41.9,58.8L42.2,58.2L41.7,58L41.6,58L41.7,57.6L42.3,57.8L42.5,57.4L42.9,57.5L42.7,57.9ZM43.5,62.4C43.6,62.4 43.6,62.3 43.6,62.2L43.5,61.8L41.2,62.6L41,62.2L43.3,61.4L43.2,61.1L43.5,61.1L43.8,60.6L41.9,61.2L41.7,60.8L44.1,60C44.2,60.1 44.3,60.1 44.4,60.2L44.4,60.4L43.8,61.2L45.8,60.5L46,61L44,61.7L44.2,62.2C44.2,62.4 44.2,62.5 44.1,62.7L43.2,63L43.1,62.8L43,62.7L43,62.6L43.5,62.4ZM43.5,59.6L44.6,59.2L44.5,58.9L43.7,59.2L43.6,58.8L44.4,58.5L44.3,58.2L43.6,58.5L43.3,58L44,57.7L43.9,57.4L43.1,57.7L43,57.3L44.3,56.8L45,59L45.4,58.9L45.8,60L45.3,60.2L45.1,59.5L41.1,60.9L41.3,61.6L40.7,61.8L40.3,60.7L40.8,60.5L40.1,58.4L41.4,57.9L41.5,58.3L40.7,58.6L40.8,58.9L41.6,58.6L41.7,59L41,59.3L41.1,59.6L41.9,59.3L42,59.7L41.2,60L41.3,60.3L42.4,59.9L42.3,59.7L42.6,59.3L42.1,59.2L42.2,58.9L42.7,59L43,58.5L43.3,58.7L43.1,59.1L43.6,59.2L43.5,59.6Z" style="fill:rgb(52,43,43);fill-rule:nonzero;"/>
        <path d="M27.7,59.9L27.7,61L27.2,61L27.2,59.9L27.7,59.9ZM26.1,59.2C26.2,59.3 26.3,59.4 26.4,59.5C26.5,59.6 26.6,59.8 26.7,59.9L26.3,60.1L25.8,59.4L26.1,59.2ZM28.4,58.3L28.4,58.5L28.2,58.5L28.1,58.4C27,58.2 25.9,57.9 24.9,57.5L24.8,57.5L24.8,57L25.2,57.2C25.7,57.4 26.3,57.6 26.8,57.7C27.3,57.8 27.8,57.9 28.3,58L28.4,58.3ZM24.7,60.9C24.8,61.2 24.9,61.5 25.1,61.7C25.4,61.7 25.8,61.6 26.2,61.5L24.7,60.9ZM24.9,59.2L24.9,59.4L24.7,59.4C24.5,59.5 24.4,59.6 24.2,59.7C24,59.8 23.9,59.8 23.7,59.9L23.5,59.4C23.9,59.3 24.3,59.1 24.7,58.9L24.9,59.2ZM27.7,60.7L28,60L24.2,58.4L23.9,59.2L23.4,59L23.9,57.8L24.9,58.2L24.8,57.6L25.2,57.6C25.3,57.9 25.4,58.1 25.4,58.3L25.2,58.3L25.9,58.6L25.9,58.3C25.9,58.2 25.8,58.1 25.8,58L26.3,58C26.3,58.1 26.4,58.3 26.4,58.4C26.4,58.5 26.5,58.7 26.5,58.8L26.4,58.8L27.1,59.1L27.1,59C27.4,58.9 27.7,58.8 28.1,58.5L28.3,58.9L28.3,59L28.1,59C28,59.1 27.9,59.1 27.8,59.2C27.7,59.2 27.6,59.3 27.5,59.3L28.6,59.7L28.1,60.8L27.7,60.7ZM25.6,59.2C25.7,59.2 25.7,59.3 25.7,59.3C25.7,59.3 25.6,59.4 25.5,59.4L25.3,59.8C25.3,59.9 25.3,60 25.4,60L26.3,60.4C26.4,60.4 26.6,60.4 26.9,60.2C26.9,60.3 27,60.4 27.1,60.5L27.1,60.6C26.7,60.9 26.5,61 26.3,60.9L25.2,60.5L25,60.6L26.7,61.3C26.8,61.4 26.8,61.4 26.8,61.5L26.8,61.7C26.3,62 25.9,62.1 25.5,62.2C25.8,62.4 26,62.5 26.3,62.7C26.5,62.8 26.8,62.9 27,63L26.6,63.4C26.3,63.3 25.9,63.1 25.6,62.9C25.3,62.7 25,62.5 24.7,62.2C24.5,62.2 24.2,62.1 23.9,62.1C23.6,62 23.3,62 22.9,61.9L22.8,61.9L22.7,61.5C22.9,61.6 23.2,61.7 23.4,61.7C23.6,61.8 23.9,61.8 24.3,61.8C24.2,61.7 24.2,61.5 24.1,61.4C24,61.2 24,61.1 24,61C23.7,61 23.4,61.1 23.2,61.1L23,60.7C23.6,60.7 24.1,60.6 24.7,60.4C24.6,60.3 24.6,60.2 24.7,60.1L25.1,59.2L25.6,59.2Z" style="fill:rgb(52,43,43);fill-rule:nonzero;"/>
        <path d="M16.4,55L16.9,55.4L17.2,55L16.7,54.6L16.4,55ZM19.5,55.8L18.6,55.1C18.4,55.3 18.3,55.5 18.1,55.8C18,56 17.9,56.2 17.7,56.5C18,56.3 18.4,56.1 18.8,55.8L19,56.2L19,56.4L18.8,56.4C18.6,56.6 18.4,56.7 18.1,56.8C17.9,56.9 17.7,57 17.4,57.1C17.4,57.2 17.3,57.3 17.4,57.4C17.5,57.4 17.6,57.4 18,57.2L18,57.6C17.9,57.7 17.8,57.7 17.7,57.8C17.6,57.8 17.5,57.9 17.4,57.9C17.3,57.9 17.2,57.9 17.1,57.8L17,57.7C16.9,57.5 16.9,57.3 17,57.1L16.1,57.1C16.1,56.9 16.1,56.8 16,56.6L16.9,56.6C17.1,56.2 17.2,55.9 17.4,55.6C17.6,55.3 17.8,55 18,54.7L16.5,53.5L16.8,53.2L18.2,54.4L18.6,54L18.9,54.3C19,54.4 19,54.5 19,54.5C19,54.5 18.9,54.5 18.8,54.6L18.6,54.8L19,55.1L19,54.7L19.4,54.7L19.4,55.1C19.4,55.2 19.4,55.3 19.3,55.4L19.4,55.5L19.5,55.8ZM15.8,55L16.6,54L17.8,55L17,56L15.8,55ZM16.7,56.5L15.4,55.9L15.1,55.9L15.1,55.7L15.3,55.3L16.8,56.2L16.7,56.5ZM14.6,55.9L17.6,58.4L20.3,55.1L17.3,52.6L14.6,55.9ZM14.2,56.5L13.8,56.1L17.3,51.9L21.1,55.1L17.6,59.2L17.2,58.9L17.3,58.7L14.3,56.2L14.2,56.5Z" style="fill:rgb(52,43,43);fill-rule:nonzero;"/>
        <path d="M14.4,48.8L14.3,48.9C14.3,48.9 14.2,48.9 14.2,48.8L14.2,48.6C13.5,47.8 12.8,46.9 12.2,45.9L12.2,45.8L12.5,45.4L12.6,45.4L12.8,45.8C13.1,46.3 13.4,46.8 13.7,47.2C14,47.6 14.3,48 14.7,48.3L14.4,48.8ZM12.9,49.6C12.7,50 12.4,50.3 12.2,50.5L11.8,50.2C12,49.9 12.3,49.7 12.4,49.3L12.9,49.6ZM12.1,48.1L12.1,49L11.6,49L11.6,48.1L12.1,48.1ZM12.4,50.3L13.1,49.9L11,46.3L10.3,46.7L10,46.3L11.1,45.7L11.7,46.7L12,46L12.4,46.3C12.3,46.6 12.2,46.8 12.1,47L11.9,47L12.3,47.7C12.4,47.6 12.4,47.5 12.5,47.4C12.5,47.3 12.6,47.2 12.6,47.1L13,47.4C13,47.5 12.9,47.7 12.8,47.8C12.7,47.9 12.7,48 12.6,48.1L12.5,48.1L12.9,48.8L12.9,48.7C13.2,48.8 13.5,48.9 14,49L14,49.5C14,49.6 14,49.6 13.9,49.6C13.9,49.6 13.8,49.6 13.7,49.5C13.6,49.5 13.5,49.5 13.4,49.4C13.3,49.4 13.2,49.4 13.1,49.3L13.7,50.3L12.6,50.9L12.4,50.3ZM11.1,47.4C11.1,47.5 11.1,47.5 11,47.6C11,47.6 10.9,47.6 10.9,47.5C10.7,47.5 10.5,47.4 10.3,47.4C10.1,47.4 10,47.3 9.8,47.2L9.9,46.7C10.3,46.9 10.7,47 11.1,47L11.1,47.4ZM9.9,48.6C9.8,48.9 9.7,49.2 9.7,49.5C10,49.7 10.3,49.9 10.7,50L9.9,48.6ZM11.6,47.8L11.6,47.9L11.4,47.9L11,48.1C10.9,48.2 10.9,48.2 11,48.4L11.5,49.2C11.5,49.3 11.7,49.3 12.1,49.4L12.1,49.8C11.7,49.8 11.4,49.7 11.3,49.5L10.7,48.5L10.4,48.4L11.4,50L11.4,50.2C11.4,50.3 11.3,50.3 11.3,50.3C10.7,50.2 10.3,50.1 9.9,49.9C10,50.2 10.1,50.5 10.2,50.7C10.3,50.9 10.4,51.2 10.6,51.4L10.1,51.4C9.9,51.1 9.8,50.8 9.6,50.4C9.5,50.1 9.4,49.7 9.3,49.3C9.1,49.1 8.9,48.9 8.7,48.7C8.5,48.5 8.3,48.2 8.1,47.9L8.1,47.8L8.2,48C8.3,48.2 8.5,48.4 8.6,48.6C8.8,48.8 9,49 9.2,49.2C9.2,49 9.3,48.9 9.3,48.7C9.3,48.5 9.4,48.4 9.5,48.3C9.2,48.1 9,48 8.8,47.8L8.9,47.3C9.4,47.6 9.9,47.9 10.4,48.1C10.4,48 10.5,47.9 10.6,47.9L11.5,47.4L11.6,47.8Z" style="fill:rgb(52,43,43);fill-rule:nonzero;"/>
        <path d="M10.9,40.5C10.9,40.6 10.9,40.7 10.8,40.7C10.8,40.7 10.7,40.7 10.6,40.6L10.4,40.6C9.5,40.8 8.7,41.2 8.1,41.7C7.4,42.4 7,43.1 6.7,44C6.6,43.9 6.4,43.7 6.2,43.6L6.2,43.5C6.5,42.8 6.9,42.2 7.5,41.6C7.8,41.3 8.1,41.1 8.4,40.8C7.9,40.8 7.3,40.7 6.8,40.4C6.1,40 5.6,39.6 5.3,39.2L5.3,39.1C5.4,38.9 5.5,38.7 5.5,38.5L5.6,38.5C5.7,39 6,39.2 6.3,39.5C6.6,39.7 7,40 7.5,40.2C7.9,40.3 8.4,40.3 8.9,40.3C9.5,40.3 10.1,40.2 10.8,40L10.9,40.5Z" style="fill:rgb(52,43,43);fill-rule:nonzero;"/>
        <path d="M62.3,34.4C62.3,34.8 62,35.2 61.5,35.2C61.1,35.2 60.7,34.9 60.7,34.4C60.7,34 61,33.6 61.5,33.6C61.9,33.6 62.3,33.9 62.3,34.4Z" style="fill:rgb(52,43,43);fill-rule:nonzero;"/>
        <path d="M8.2,34.4C8.2,34.8 7.9,35.2 7.4,35.2C7,35.2 6.6,34.9 6.6,34.4C6.6,34 6.9,33.6 7.4,33.6C7.8,33.6 8.2,34 8.2,34.4Z" style="fill:rgb(52,43,43);fill-rule:nonzero;"/>
        <path d="M35.2,61.5C35.2,61.9 34.9,62.3 34.4,62.3C34,62.3 33.6,62 33.6,61.5C33.6,61.1 33.9,60.7 34.4,60.7C34.9,60.7 35.2,61 35.2,61.5Z" style="fill:rgb(52,43,43);fill-rule:nonzero;"/>
        <path d="M34.2,1.6C34.1,1.7 34.2,1.7 34.1,1.9C34,2 33.9,2 33.8,1.9C33.7,1.8 33.7,1.6 33.9,1.4C34.1,1.2 34.3,1.1 34.6,1.3C34.9,1.4 35,1.9 34.8,2.2C34.6,2.5 34.2,2.7 33.7,2.6C33.2,2.5 32.9,1.9 33.2,1.2C33.4,0.8 33.9,0.4 34.5,0.4C35,0.4 35.4,0.4 35.9,0.8C36.2,0.5 36.6,0.5 37,0.5C37.1,0.5 37.1,0.6 37,0.6C36.8,0.6 36.3,0.7 36.2,1.6C36.1,2.5 35.8,3.2 35.3,3.5L34.4,3.5C34.8,3.4 35.7,2.8 35.7,1.9C35.7,1.6 35.7,1.3 35.3,1C35.8,1.6 35.6,2.4 35.2,2.8C34.7,3.3 33.8,3.6 32.6,2.9C32.3,3.2 32,3.3 31.6,3.1C31.5,3.1 31.5,3 31.6,2.9C31.8,2.8 32.3,2.7 32.4,1.9C32.4,1.1 32.7,0.5 33.3,-0L34.2,-0C34,0.1 33,0.4 32.9,1.6C32.9,2.2 33.3,2.6 33.8,2.6C34.9,3 35.4,2.1 35,1.4C34.9,1 34.5,0.9 34.1,1C33.7,1.1 33.5,1.4 33.5,1.7C33.5,2 33.7,2.2 33.9,2.2C34.3,2.2 34.4,2.1 34.5,1.8C34.5,1.6 34.4,1.6 34.2,1.6Z" style="fill:rgb(189,156,38);fill-rule:nonzero;"/>
        <path d="M38.9,2.4C39,2.4 38.9,2.3 39,2.2C39.1,2.1 39.2,2.1 39.3,2.2C39.4,2.3 39.3,2.5 39.2,2.7C39,2.8 38.8,2.9 38.5,2.7C38.2,2.5 38.2,2.1 38.4,1.7C38.6,1.4 39,1.3 39.6,1.5C40,1.7 40.2,2.4 39.8,3C39.5,3.4 39,3.7 38.4,3.6C37.9,3.6 37.5,3.5 37.1,3C36.8,3.2 36.4,3.3 36,3.1C35.9,3.1 35.9,3 36,3C36.2,3 36.7,3 36.9,2.1C37.1,1.2 37.6,0.5 38,0.4C38,0.4 38.4,0.5 38.9,0.5C38.5,0.5 37.5,1 37.4,1.9C37.4,2.2 37.4,2.5 37.7,2.9C37.3,2.2 37.6,1.5 38.1,1.1C38.6,0.7 39.6,0.4 40.7,1.3C41,1.1 41.4,1 41.8,1.2C41.9,1.2 41.9,1.3 41.8,1.4C41.6,1.4 41,1.5 40.9,2.3C40.7,3 40.4,3.6 39.7,4C39.6,4 38.8,3.9 38.8,3.9C39,3.8 40.1,3.6 40.3,2.5C40.4,1.9 40,1.5 39.5,1.4C38.3,1.1 37.7,2 38,2.7C38.1,3 38.5,3.2 38.9,3.1C39.3,3.1 39.6,2.8 39.6,2.5C39.6,2.2 39.5,2 39.2,2C38.8,1.9 38.6,2.1 38.6,2.3C38.6,2.4 38.7,2.5 38.9,2.4Z" style="fill:rgb(189,156,38);fill-rule:nonzero;"/>
        <path d="M43.5,2.9C43.3,3 43.4,3 43.3,3.1C43.2,3.2 43.1,3.1 43,3C42.9,2.9 43,2.7 43.2,2.5C43.4,2.4 43.6,2.3 43.9,2.6C44.1,2.8 44.1,3.3 43.8,3.6C43.5,3.8 43.1,3.9 42.6,3.7C42.1,3.4 42,2.8 42.5,2.3C42.8,2 43.4,1.8 44,1.9C44.5,2 44.9,2.2 45.2,2.6C45.5,2.4 45.9,2.5 46.3,2.6C46.4,2.7 46.4,2.8 46.3,2.8C46.1,2.8 45.6,2.7 45.3,3.5C45,4.4 44.5,4.9 44,5.1C44,5.1 43.6,5 43.1,4.8C43.5,4.8 44.5,4.5 44.8,3.6C44.9,3.3 44.9,3 44.7,2.6C45,3.3 44.6,4 44.1,4.3C43.5,4.6 42.6,4.7 41.5,3.7C41.2,3.9 40.8,3.9 40.4,3.7C40.3,3.7 40.3,3.6 40.4,3.6C40.6,3.6 41.2,3.6 41.4,2.9C41.6,2.2 42,1.6 42.8,1.3C42.9,1.3 43.7,1.6 43.7,1.6C43.5,1.6 42.4,1.7 42,2.8C41.8,3.4 42.2,3.9 42.6,4C43.8,4.5 44.4,3.7 44.3,2.9C44.2,2.5 43.9,2.4 43.5,2.3C43.1,2.3 42.8,2.5 42.7,2.8C42.6,3.1 42.8,3.3 43,3.4C43.4,3.5 43.6,3.4 43.7,3.2C43.7,3 43.6,2.9 43.5,2.9Z" style="fill:rgb(189,156,38);fill-rule:nonzero;"/>
        <path d="M47.7,5C47.8,5 47.8,4.9 47.9,4.8C48,4.8 48.1,4.8 48.2,4.9C48.2,5 48.2,5.2 47.9,5.3C47.7,5.4 47.4,5.4 47.2,5.1C47,4.9 47,4.5 47.4,4.2C47.6,4 48.1,4 48.6,4.3C49,4.6 49,5.3 48.5,5.7C48.1,6 47.6,6.1 46.9,5.9C46.4,5.7 46.1,5.5 45.8,5C45.4,5.1 45.1,5.1 44.7,4.8C44.6,4.7 44.7,4.6 44.7,4.7C44.9,4.7 45.4,4.9 45.8,4.1C46.2,3.3 46.9,2.8 47.4,2.7C47.4,2.7 47.8,2.9 48.2,3.1C47.8,3 46.8,3.2 46.4,4.1C46.3,4.3 46.2,4.7 46.4,5.1C46.2,4.3 46.7,3.7 47.3,3.5C47.9,3.3 48.9,3.3 49.8,4.4C50.1,4.3 50.5,4.3 50.8,4.6C50.9,4.7 50.9,4.8 50.7,4.7C50.5,4.7 49.9,4.6 49.6,5.3C49.3,6 48.8,6.5 48,6.7C47.9,6.6 47.2,6.3 47.2,6.3C47.4,6.3 48.5,6.4 49,5.3C49.3,4.7 49,4.2 48.6,4C47.5,3.4 46.7,4.1 46.8,4.9C46.8,5.3 47.1,5.5 47.5,5.6C47.9,5.7 48.2,5.5 48.4,5.2C48.5,4.9 48.4,4.7 48.2,4.6C47.9,4.4 47.6,4.5 47.5,4.7C47.4,4.9 47.5,5 47.7,5Z" style="fill:rgb(189,156,38);fill-rule:nonzero;"/>
        <path d="M51.9,6.8C51.8,6.8 51.8,6.9 51.7,6.9C51.6,6.9 51.5,6.9 51.4,6.8C51.4,6.7 51.5,6.5 51.7,6.4C51.9,6.4 52.2,6.4 52.4,6.7C52.6,7 52.4,7.4 52.1,7.6C51.8,7.7 51.3,7.7 50.9,7.3C50.5,6.9 50.6,6.3 51.2,5.9C51.6,5.7 52.2,5.6 52.8,5.9C53.2,6.1 53.6,6.4 53.8,7C54.2,6.9 54.5,7.1 54.8,7.4C54.9,7.5 54.8,7.6 54.7,7.5C54.5,7.4 54,7.2 53.5,7.9C53,8.6 52.4,9 51.8,9C51.8,9 51.4,8.8 51.1,8.5C51.4,8.6 52.5,8.6 53.1,7.8C53.2,7.6 53.4,7.2 53.3,6.8C53.3,7.6 52.8,8.1 52.2,8.3C51.5,8.4 50.6,8.3 49.9,7C49.5,7.1 49.2,7 48.9,6.7C48.8,6.6 48.9,6.5 49,6.6C49.2,6.6 49.7,6.8 50.2,6.2C50.6,5.6 51.2,5.2 52,5.1C52.1,5.2 52.7,5.6 52.7,5.6C52.5,5.5 51.4,5.3 50.7,6.3C50.4,6.8 50.5,7.4 50.9,7.7C51.9,8.5 52.8,7.9 52.9,7.1C52.9,6.7 52.7,6.5 52.3,6.3C51.9,6.2 51.6,6.3 51.4,6.6C51.2,6.9 51.3,7.1 51.5,7.2C51.8,7.4 52,7.4 52.2,7.2C52.2,6.9 52.1,6.8 51.9,6.8Z" style="fill:rgb(189,156,38);fill-rule:nonzero;"/>
        <path d="M55.4,9.9C55.5,9.9 55.5,9.8 55.7,9.8C55.8,9.8 55.9,9.9 55.9,10C55.9,10.1 55.8,10.3 55.5,10.3C55.3,10.3 55,10.3 54.9,9.9C54.8,9.6 55,9.2 55.4,9C55.7,8.9 56.2,9 56.5,9.4C56.8,9.8 56.6,10.5 56,10.8C55.5,11 55,10.9 54.4,10.5C54,10.2 53.7,9.9 53.6,9.3C53.2,9.3 52.9,9.1 52.6,8.8C52.5,8.7 52.6,8.6 52.7,8.7C52.8,8.8 53.3,9.1 53.9,8.5C54.6,7.8 55.3,7.5 55.8,7.6C55.8,7.6 56.1,7.9 56.5,8.2C56.2,8 55.1,7.9 54.5,8.6C54.3,8.8 54.1,9.1 54.2,9.6C54.3,8.8 54.9,8.4 55.5,8.3C56.2,8.2 57.1,8.5 57.6,9.9C58,9.9 58.3,10 58.5,10.4C58.5,10.5 58.5,10.6 58.4,10.5C58.2,10.4 57.7,10.2 57.2,10.7C56.7,11.3 56.1,11.6 55.3,11.6C55.2,11.5 54.6,11 54.6,11C54.8,11.1 55.8,11.5 56.6,10.6C57,10.1 56.9,9.6 56.6,9.2C55.7,8.3 54.8,8.7 54.6,9.5C54.5,9.9 54.8,10.2 55.1,10.3C55.4,10.5 55.8,10.4 56,10.2C56.2,9.9 56.1,9.7 56,9.6C55.7,9.3 55.5,9.4 55.3,9.5C55.2,9.7 55.3,9.9 55.4,9.9Z" style="fill:rgb(189,156,38);fill-rule:nonzero;"/>
        <path d="M59,12.8C58.9,12.8 58.9,12.9 58.7,12.9C58.6,12.9 58.5,12.8 58.5,12.7C58.5,12.6 58.7,12.4 58.9,12.4C59.1,12.4 59.4,12.5 59.5,12.8C59.6,13.1 59.3,13.5 58.9,13.6C58.6,13.7 58.1,13.5 57.9,13C57.7,12.5 57.9,11.9 58.6,11.7C59.1,11.6 59.6,11.7 60.1,12.2C60.4,12.5 60.7,12.9 60.7,13.5C61.1,13.5 61.4,13.8 61.6,14.1C61.7,14.2 61.6,14.3 61.5,14.2C61.4,14.1 60.9,13.8 60.3,14.3C59.6,14.9 58.8,15 58.3,14.9C58.3,14.9 58,14.6 57.7,14.2C58,14.4 59,14.7 59.8,14.1C60,13.9 60.2,13.6 60.2,13.2C60,14 59.3,14.3 58.7,14.3C58,14.3 57.2,13.8 56.8,12.4C56.4,12.4 56.1,12.1 55.9,11.8C55.9,11.7 55.9,11.6 56,11.7C56.2,11.8 56.7,12.1 57.2,11.6C57.8,11.1 58.4,10.9 59.2,11C59.3,11.1 59.8,11.7 59.8,11.7C59.6,11.6 58.7,11.1 57.7,11.8C57.2,12.2 57.3,12.8 57.5,13.2C58.2,14.2 59.2,13.9 59.5,13.2C59.6,12.9 59.4,12.5 59.1,12.3C58.8,12.1 58.4,12.1 58.2,12.3C58,12.5 58,12.8 58.1,12.9C58.3,13.2 58.6,13.2 58.8,13.1C59.2,13 59.2,12.8 59,12.8Z" style="fill:rgb(189,156,38);fill-rule:nonzero;"/>
        <path d="M61.5,16.8L61.8,16.8C61.9,16.8 62,16.9 62,17C62,17.1 61.8,17.2 61.6,17.2C61.4,17.2 61.2,17 61.1,16.7C61.1,16.4 61.3,16 61.8,16C62.1,16 62.6,16.2 62.7,16.7C62.9,17.2 62.5,17.8 61.8,17.9C61.3,17.9 60.8,17.7 60.4,17.2C60.1,16.8 59.9,16.4 59.9,15.9C59.5,15.8 59.2,15.5 59.1,15.2C59.1,15.1 59.2,15 59.2,15.1C59.3,15.2 59.7,15.6 60.4,15.2C61.2,14.7 62,14.7 62.5,14.9C62.5,14.9 62.7,15.3 63,15.7C62.7,15.4 61.7,15 60.9,15.5C60.7,15.7 60.4,15.9 60.4,16.4C60.7,15.7 61.4,15.4 62,15.5C62.7,15.6 63.5,16.2 63.6,17.6C64,17.7 64.3,17.9 64.4,18.3C64.4,18.4 64.4,18.5 64.3,18.4C64.1,18.3 63.7,17.9 63.1,18.3C62.4,18.7 61.8,18.9 61,18.6C60.9,18.5 60.5,17.8 60.5,17.8C60.7,17.9 61.5,18.6 62.6,18C63.1,17.7 63.2,17.1 62.9,16.7C62.3,15.6 61.3,15.8 60.9,16.4C60.7,16.7 60.9,17.1 61.1,17.3C61.4,17.6 61.8,17.6 62,17.4C62.3,17.2 62.3,17 62.2,16.8C62,16.5 61.8,16.4 61.5,16.5C61.3,16.6 61.3,16.7 61.5,16.8Z" style="fill:rgb(189,156,38);fill-rule:nonzero;"/>
        <path d="M64.1,20.6C64,20.5 64,20.6 63.8,20.6C63.7,20.6 63.6,20.5 63.7,20.3C63.8,20.2 63.9,20.1 64.2,20.2C64.4,20.3 64.6,20.4 64.6,20.8C64.6,21.1 64.3,21.4 63.8,21.4C63.5,21.4 63.1,21.1 63,20.5C62.9,20 63.3,19.5 64,19.5C64.5,19.5 65,19.8 65.3,20.4C65.5,20.8 65.7,21.2 65.5,21.8C65.9,21.9 66.1,22.3 66.2,22.7C66.2,22.8 66.1,22.8 66.1,22.8C66,22.7 65.7,22.2 64.9,22.5C64,22.8 63.2,22.8 62.8,22.5C62.8,22.5 62.6,22.1 62.5,21.7C62.7,22 63.6,22.6 64.5,22.2C64.7,22.1 65.1,21.9 65.2,21.4C64.8,22 64,22.2 63.5,22C62.9,21.8 62.2,21.1 62.3,19.7C62,19.6 61.7,19.3 61.6,18.9C61.6,18.8 61.7,18.8 61.7,18.8C61.8,18.9 62.2,19.4 62.9,19.1C63.6,18.8 64.3,18.8 65,19.1C65,19.2 65.4,19.9 65.4,19.9C65.2,19.7 64.5,19 63.4,19.4C62.8,19.6 62.7,20.2 62.8,20.7C63.2,21.9 64.2,21.9 64.7,21.3C64.9,21 64.8,20.6 64.6,20.3C64.4,20 64,19.9 63.7,20C63.4,20.1 63.4,20.4 63.4,20.6C63.5,20.9 63.8,21 64,21C64.3,20.9 64.3,20.7 64.1,20.6Z" style="fill:rgb(189,156,38);fill-rule:nonzero;"/>
        <path d="M65.3,25.2C65.4,25.3 65.5,25.2 65.6,25.2C65.7,25.3 65.7,25.4 65.7,25.5C65.6,25.6 65.4,25.7 65.2,25.6C65,25.5 64.8,25.3 64.9,25C65,24.7 65.3,24.4 65.7,24.5C66,24.6 66.4,24.9 66.4,25.5C66.4,26 65.9,26.5 65.2,26.4C64.7,26.3 64.3,26 64,25.3C63.8,24.8 63.7,24.4 64,23.9C63.7,23.7 63.5,23.4 63.4,23C63.4,22.9 63.5,22.9 63.5,22.9C63.6,23.1 63.8,23.5 64.7,23.4C65.6,23.2 66.4,23.4 66.8,23.7C66.8,23.7 66.9,24.1 67,24.6C66.8,24.3 66,23.6 65.1,23.8C64.8,23.9 64.5,24 64.3,24.5C64.8,23.9 65.6,23.8 66.1,24.1C66.7,24.4 67.3,25.2 67,26.6C67.3,26.8 67.5,27.1 67.5,27.5C67.5,27.6 67.4,27.6 67.4,27.5C67.3,27.3 67,26.9 66.3,27.1C65.5,27.3 64.9,27.3 64.2,26.8C64.2,26.7 64,25.9 64,25.9C64.1,26.1 64.8,27 65.9,26.7C66.5,26.5 66.7,26 66.6,25.5C66.4,24.3 65.3,24.1 64.8,24.7C64.5,25 64.6,25.3 64.7,25.7C64.9,26 65.2,26.2 65.6,26.1C65.9,26 66,25.8 65.9,25.6C65.8,25.2 65.6,25.1 65.3,25.2C65.2,24.9 65.2,25 65.3,25.2Z" style="fill:rgb(189,156,38);fill-rule:nonzero;"/>
        <path d="M66.8,29.5C66.7,29.4 66.6,29.5 66.5,29.4C66.4,29.3 66.4,29.2 66.4,29.1C66.5,29 66.7,29 66.9,29.1C67.1,29.2 67.2,29.4 67.1,29.8C67,30.1 66.6,30.3 66.2,30.1C65.9,30 65.6,29.6 65.6,29.1C65.7,28.6 66.2,28.2 66.9,28.4C67.3,28.6 67.7,29 67.9,29.6C68,30.1 68,30.5 67.7,31C68,31.2 68.1,31.6 68.1,32C68.1,32.1 68,32.1 68,32.1C67.9,31.9 67.8,31.4 66.9,31.5C66,31.6 65.2,31.3 64.9,30.9C64.9,30.9 64.9,30.5 64.8,30C64.9,30.3 65.6,31.2 66.6,31C66.9,31 67.2,30.9 67.5,30.4C66.9,30.9 66.2,30.9 65.7,30.5C65.2,30.1 64.7,29.3 65.2,27.9C64.9,27.7 64.8,27.3 64.8,26.9C64.8,26.8 64.9,26.8 65,26.9C65.1,27.1 65.3,27.6 66.1,27.5C66.9,27.4 67.5,27.5 68.1,28.1C68.1,28.2 68.2,29 68.2,29C68.1,28.8 67.6,27.8 66.4,28C65.8,28.1 65.5,28.6 65.5,29.1C65.5,30.4 66.6,30.6 67.2,30.2C67.5,30 67.5,29.6 67.4,29.3C67.3,29 66.9,28.7 66.6,28.8C66.3,28.9 66.2,29.1 66.2,29.3C66.2,29.7 66.4,29.8 66.7,29.8C66.9,29.8 66.9,29.6 66.8,29.5Z" style="fill:rgb(189,156,38);fill-rule:nonzero;"/>
        <path d="M66.7,34.2C66.8,34.3 66.8,34.2 67,34.3C67.1,34.4 67.1,34.5 67,34.6C66.9,34.7 66.7,34.7 66.5,34.5C66.3,34.4 66.2,34.1 66.3,33.8C66.4,33.5 66.9,33.4 67.2,33.6C67.5,33.8 67.7,34.2 67.6,34.7C67.5,35.2 66.9,35.5 66.2,35.2C65.8,35 65.4,34.5 65.4,33.9C65.4,33.4 65.4,33 65.7,32.5C65.4,32.2 65.3,31.8 65.4,31.4C65.4,31.3 65.5,31.3 65.5,31.4C65.5,31.6 65.7,32.1 66.5,32.2C67.4,32.3 68.1,32.6 68.4,33.1L68.4,34C68.3,33.6 67.7,32.7 66.8,32.7C66.5,32.7 66.2,32.8 65.9,33.1C66.5,32.6 67.3,32.8 67.7,33.2C68.2,33.7 68.6,34.6 67.9,35.8C68.2,36.1 68.3,36.4 68.2,36.8C68.2,36.9 68.1,36.9 68,36.8C67.9,36.6 67.8,36.1 67,36.1C66.2,36.1 65.6,35.9 65.1,35.2L65.1,34.3C65.2,34.5 65.5,35.5 66.8,35.6C67.4,35.6 67.8,35.1 67.8,34.7C67.9,33.4 67,33 66.3,33.4C66,33.6 65.9,34 66,34.3C66.1,34.7 66.4,34.9 66.7,34.9C67,34.9 67.2,34.7 67.2,34.5C67.2,34.1 67,34 66.8,33.9C66.7,33.9 66.6,34.1 66.7,34.2Z" style="fill:rgb(189,156,38);fill-rule:nonzero;"/>
        <path d="M66.8,38.9C66.7,38.8 66.7,38.8 66.6,38.7C66.5,38.6 66.5,38.5 66.6,38.4C66.7,38.3 66.9,38.4 67.1,38.5C67.2,38.7 67.3,38.9 67.1,39.2C66.9,39.5 66.5,39.5 66.1,39.3C65.8,39.1 65.7,38.7 65.9,38.1C66.1,37.6 66.7,37.4 67.3,37.8C67.7,38.1 67.9,38.6 67.9,39.2C67.9,39.7 67.8,40.1 67.3,40.5C67.5,40.8 67.5,41.2 67.4,41.6C67.3,41.7 67.3,41.7 67.2,41.6C67.2,41.4 67.2,40.9 66.3,40.7C65.4,40.5 64.8,40 64.6,39.5C64.6,39.5 64.7,39.1 64.8,38.6C64.8,39 65.3,40 66.2,40.1C66.5,40.1 66.8,40.1 67.2,39.8C66.5,40.2 65.8,39.9 65.4,39.4C65,38.8 64.8,37.9 65.6,36.8C65.4,36.5 65.3,36.1 65.5,35.7C65.5,35.6 65.6,35.6 65.7,35.7C65.7,35.9 65.8,36.5 66.6,36.6C67.4,36.7 67.9,37.1 68.3,37.8C68.3,37.9 68.1,38.7 68.1,38.7C68.1,38.5 67.9,37.4 66.7,37.2C66.1,37.1 65.7,37.5 65.6,38C65.3,39.2 66.2,39.8 66.9,39.5C67.2,39.4 67.4,39 67.4,38.6C67.4,38.2 67.1,37.9 66.8,37.9C66.5,37.9 66.3,38 66.3,38.2C66.2,38.6 66.4,38.8 66.6,38.8C66.8,39.1 66.9,39 66.8,38.9Z" style="fill:rgb(189,156,38);fill-rule:nonzero;"/>
        <path d="M65.4,43.3C65.5,43.4 65.5,43.4 65.6,43.5C65.7,43.6 65.6,43.7 65.5,43.8C65.4,43.9 65.2,43.8 65,43.6C64.9,43.4 64.8,43.2 65.1,42.9C65.3,42.7 65.8,42.7 66.1,43C66.3,43.3 66.5,43.7 66.2,44.2C65.9,44.7 65.3,44.8 64.8,44.3C64.5,44 64.3,43.4 64.4,42.8C64.5,42.3 64.7,41.9 65.1,41.6C64.9,41.3 64.9,40.9 65.1,40.5C65.2,40.4 65.3,40.4 65.3,40.5C65.3,40.7 65.2,41.2 66,41.5C66.9,41.8 67.4,42.4 67.6,42.9C67.6,42.9 67.5,43.3 67.3,43.8C67.3,43.4 67,42.4 66.1,42.1C65.8,42 65.5,42 65.1,42.2C65.8,41.9 66.5,42.3 66.8,42.8C67.1,43.4 67.2,44.3 66.2,45.4C66.4,45.7 66.4,46.1 66.2,46.5C66.2,46.6 66.1,46.6 66,46.5C66,46.3 66,45.7 65.3,45.5C64.6,45.3 64,44.9 63.7,44.1C63.7,44 64,43.2 64,43.2C64,43.4 64.1,44.5 65.2,44.9C65.8,45.1 66.2,44.7 66.4,44.3C66.9,43.1 66.1,42.5 65.3,42.6C64.9,42.7 64.8,43 64.7,43.4C64.7,43.8 64.9,44.1 65.2,44.2C65.5,44.3 65.7,44.1 65.8,43.9C65.9,43.5 65.8,43.3 65.6,43.2C65.5,43.1 65.4,43.2 65.4,43.3Z" style="fill:rgb(189,156,38);fill-rule:nonzero;"/>
        <path d="M64.3,47.8C64.3,47.7 64.2,47.7 64.1,47.6C64.1,47.5 64.1,47.4 64.2,47.3C64.3,47.3 64.5,47.3 64.6,47.6C64.7,47.8 64.7,48.1 64.4,48.3C64.2,48.5 63.7,48.4 63.5,48.1C63.3,47.8 63.3,47.4 63.6,46.9C63.9,46.5 64.6,46.5 65,47C65.3,47.4 65.4,47.9 65.2,48.6C65,49.1 64.8,49.4 64.3,49.7C64.4,50.1 64.3,50.4 64.1,50.8C64,50.9 63.9,50.8 64,50.8C64,50.6 64.2,50.1 63.4,49.7C62.6,49.3 62.1,48.6 62.1,48.1C62.1,48.1 62.3,47.7 62.5,47.3C62.4,47.7 62.6,48.7 63.4,49.2C63.6,49.3 64,49.4 64.4,49.2C63.6,49.3 63,48.9 62.8,48.3C62.6,47.7 62.6,46.7 63.8,45.8C63.7,45.5 63.7,45.1 64,44.8C64.1,44.7 64.2,44.8 64.1,44.9C64.1,45.1 64,45.7 64.7,46C65.4,46.3 65.9,46.8 66,47.6C65.9,47.7 65.6,48.4 65.6,48.4C65.6,48.2 65.7,47.1 64.6,46.5C64,46.2 63.5,46.5 63.3,46.9C62.6,48 63.4,48.8 64.1,48.7C64.5,48.7 64.7,48.4 64.8,48C64.9,47.6 64.7,47.3 64.4,47.1C64.1,47 63.9,47.1 63.8,47.3C63.6,47.6 63.7,47.9 63.9,48C64.2,48.1 64.3,48 64.3,47.8Z" style="fill:rgb(189,156,38);fill-rule:nonzero;"/>
        <path d="M61.6,51.7C61.6,51.8 61.7,51.8 61.7,51.9C61.7,52 61.7,52.1 61.6,52.2C61.5,52.2 61.3,52.1 61.2,51.9C61.1,51.7 61.2,51.4 61.5,51.2C61.8,51 62.2,51.2 62.4,51.5C62.6,51.8 62.5,52.3 62.1,52.7C61.7,53.1 61.1,53 60.7,52.4C60.5,52 60.4,51.4 60.7,50.8C60.9,50.4 61.2,50 61.7,49.8C61.6,49.4 61.8,49.1 62.1,48.8C62.2,48.7 62.3,48.8 62.2,48.9C62.1,49.1 61.9,49.6 62.6,50.1C63.4,50.7 63.7,51.3 63.7,51.9C63.7,51.9 63.5,52.3 63.2,52.6C63.3,52.3 63.3,51.2 62.5,50.6C62.3,50.5 61.9,50.3 61.5,50.5C62.3,50.5 62.8,51 63,51.6C63.1,52.3 63,53.2 61.7,53.9C61.8,54.3 61.7,54.6 61.4,54.9C61.3,55 61.2,54.9 61.3,54.8C61.3,54.6 61.5,54.1 60.9,53.6C60.2,53.2 59.9,52.6 59.8,51.8C59.9,51.7 60.3,51.1 60.3,51.1C60.2,51.3 60,52.4 61,53.1C61.5,53.4 62.1,53.2 62.4,52.9C63.2,51.9 62.6,51 61.8,51C61.4,51 61.2,51.2 61,51.6C60.9,52 61,52.3 61.3,52.5C61.6,52.7 61.8,52.6 61.9,52.4C62.1,52.1 62.1,51.9 61.9,51.7C61.8,51.5 61.6,51.6 61.6,51.7Z" style="fill:rgb(189,156,38);fill-rule:nonzero;"/>
        <path d="M59.3,55.7C59.3,55.6 59.2,55.6 59.2,55.4C59.2,55.3 59.3,55.2 59.4,55.2C59.5,55.2 59.7,55.3 59.7,55.6C59.7,55.8 59.7,56.1 59.3,56.2C59,56.3 58.6,56.1 58.4,55.7C58.3,55.4 58.4,54.9 58.8,54.6C59.2,54.3 59.9,54.5 60.1,55.1C60.3,55.6 60.2,56.1 59.8,56.6C59.5,57 59.2,57.3 58.6,57.4C58.6,57.8 58.4,58.1 58.1,58.4C58,58.5 57.9,58.4 58,58.3C58.1,58.2 58.4,57.7 57.8,57.1C57.1,56.4 56.9,55.7 57,55.2C57,55.2 57.3,54.9 57.6,54.5C57.4,54.8 57.3,55.9 58,56.5C58.2,56.7 58.5,56.9 59,56.8C58.2,56.7 57.8,56.1 57.7,55.5C57.7,54.8 58,53.9 59.3,53.4C59.3,53 59.5,52.7 59.8,52.5C59.9,52.5 60,52.5 59.9,52.6C59.8,52.8 59.6,53.3 60.1,53.8C60.7,54.3 61,54.9 60.9,55.7C60.8,55.8 60.3,56.4 60.3,56.4C60.4,56.2 60.8,55.2 59.9,54.4C59.4,54 58.9,54.1 58.5,54.4C57.6,55.2 58,56.2 58.8,56.4C59.2,56.5 59.5,56.3 59.6,55.9C59.8,55.6 59.7,55.2 59.5,55C59.2,54.8 59,54.8 58.9,55C58.6,55.3 58.6,55.5 58.8,55.7C59.1,55.9 59.2,55.9 59.3,55.7Z" style="fill:rgb(189,156,38);fill-rule:nonzero;"/>
        <path d="M55.6,58.7C55.6,58.8 55.7,58.8 55.7,59C55.7,59.1 55.6,59.2 55.5,59.2C55.4,59.2 55.2,59 55.2,58.8C55.2,58.6 55.3,58.3 55.6,58.2C55.9,58.1 56.3,58.4 56.4,58.8C56.5,59.1 56.3,59.6 55.8,59.8C55.3,60 54.7,59.8 54.5,59.1C54.4,58.6 54.5,58.1 55,57.6C55.3,57.3 55.7,57 56.3,57C56.3,56.6 56.6,56.3 56.9,56.1C57,56 57.1,56.1 57,56.2C56.9,56.3 56.6,56.8 57.1,57.4C57.7,58.1 57.8,58.9 57.7,59.4C57.7,59.4 57.4,59.7 57,60C57.2,59.7 57.5,58.7 56.9,57.9C56.7,57.7 56.4,57.5 56,57.5C56.8,57.7 57.1,58.4 57.1,59C57.1,59.7 56.6,60.5 55.2,60.9C55.2,61.3 55,61.6 54.6,61.8C54.5,61.8 54.4,61.8 54.5,61.7C54.6,61.5 54.9,61 54.4,60.5C53.9,59.9 53.7,59.3 53.8,58.5C53.9,58.4 54.5,57.9 54.5,57.9C54.4,58.1 53.9,59 54.6,60C55,60.5 55.6,60.4 56,60.2C57,59.5 56.7,58.5 56,58.2C55.7,58.1 55.3,58.3 55.1,58.6C54.9,58.9 54.9,59.3 55.1,59.5C55.3,59.7 55.6,59.7 55.7,59.6C56,59.4 56,59.1 55.9,58.9C55.8,58.5 55.7,58.5 55.6,58.7Z" style="fill:rgb(189,156,38);fill-rule:nonzero;"/>
        <path d="M52.3,61.8L52.3,61.5C52.3,61.4 52.4,61.3 52.5,61.3C52.6,61.3 52.7,61.5 52.7,61.7C52.7,61.9 52.5,62.1 52.2,62.2C51.9,62.2 51.5,61.9 51.5,61.5C51.5,61.2 51.7,60.7 52.2,60.6C52.7,60.4 53.3,60.8 53.4,61.5C53.4,62 53.2,62.5 52.7,62.9C52.3,63.2 51.9,63.4 51.3,63.3C51.2,63.7 50.9,63.9 50.5,64.1C50.4,64.1 50.3,64 50.4,64C50.5,63.9 50.9,63.5 50.5,62.8C50,62 50,61.2 50.2,60.7C50.2,60.7 50.6,60.5 51,60.2C50.7,60.5 50.3,61.4 50.8,62.3C51,62.5 51.2,62.8 51.7,62.9C51,62.6 50.7,61.9 50.8,61.3C50.9,60.6 51.5,59.9 52.9,59.7C53,59.3 53.2,59.1 53.6,58.9C53.7,58.9 53.8,58.9 53.7,59C53.6,59.1 53.2,59.6 53.6,60.2C54,60.9 54.1,61.5 53.9,62.3C53.8,62.4 53.1,62.8 53.1,62.8C53.2,62.6 53.9,61.8 53.3,60.7C53,60.2 52.4,60.1 52,60.3C50.9,60.9 51,61.9 51.7,62.3C52,62.5 52.4,62.3 52.6,62.1C52.9,61.8 52.9,61.5 52.7,61.2C52.5,60.9 52.3,60.9 52.1,61C51.8,61.2 51.7,61.4 51.8,61.6C52,62 52.2,62 52.3,61.8Z" style="fill:rgb(189,156,38);fill-rule:nonzero;"/>
        <path d="M47.9,63.7C47.8,63.8 47.9,63.8 47.9,64C47.9,64.1 47.8,64.2 47.6,64.1C47.5,64 47.4,63.9 47.4,63.6C47.5,63.4 47.6,63.2 48,63.2C48.3,63.2 48.6,63.5 48.6,64C48.6,64.3 48.3,64.7 47.8,64.8C47.3,64.9 46.8,64.5 46.8,63.8C46.8,63.3 47.1,62.8 47.7,62.5C48.1,62.3 48.5,62.1 49.1,62.2C49.2,61.8 49.5,61.6 50,61.5C50.1,61.5 50.1,61.6 50.1,61.6C50,61.7 49.5,62 49.8,62.8C50.1,63.7 50.1,64.5 49.8,64.9C49.8,64.9 49.4,65.1 49,65.3C49.3,65.1 49.9,64.2 49.5,63.3C49.4,63.1 49.2,62.7 48.7,62.6C49.4,63 49.5,63.7 49.4,64.3C49.2,64.9 48.5,65.6 47.1,65.6C47,65.9 46.7,66.2 46.3,66.3C46.2,66.3 46.1,66.2 46.2,66.2C46.3,66.1 46.8,65.7 46.5,65C46.2,64.3 46.1,63.6 46.5,62.9C46.6,62.8 47.3,62.5 47.3,62.5C47.1,62.7 46.4,63.4 46.8,64.5C47.1,65.1 47.6,65.2 48.1,65C49.3,64.6 49.3,63.5 48.7,63C48.4,62.8 48,62.9 47.7,63.1C47.4,63.3 47.3,63.7 47.4,64C47.6,64.3 47.8,64.3 48,64.3C48.3,64.2 48.4,63.9 48.3,63.7C48.2,63.6 48,63.6 47.9,63.7Z" style="fill:rgb(189,156,38);fill-rule:nonzero;"/>
        <path d="M43.8,65.8C43.9,65.7 43.8,65.7 43.8,65.5C43.9,65.4 44,65.4 44.1,65.4C44.2,65.5 44.3,65.7 44.2,65.9C44.1,66.1 43.9,66.3 43.6,66.2C43.3,66.1 43,65.8 43.1,65.4C43.2,65.1 43.5,64.7 44.1,64.7C44.6,64.7 45.1,65.2 45,65.9C44.9,66.4 44.5,66.8 43.9,67.1C43.4,67.3 43,67.4 42.5,67.1C42.3,67.4 42,67.6 41.6,67.6C41.5,67.6 41.5,67.5 41.5,67.5C41.7,67.4 42.1,67.2 42,66.3C41.8,65.4 42,64.6 42.3,64.2C42.3,64.2 42.7,64.1 43.2,64C42.9,64.2 42.2,65 42.4,65.9C42.5,66.2 42.6,66.5 43.1,66.7C42.5,66.2 42.4,65.4 42.7,64.9C43,64.3 43.8,63.7 45.2,64C45.4,63.7 45.7,63.5 46.1,63.5C46.2,63.5 46.2,63.6 46.1,63.6C45.9,63.7 45.5,64 45.6,64.7C45.8,65.4 45.8,66.1 45.3,66.8C45.2,66.8 44.4,67 44.4,67C44.6,66.9 45.5,66.3 45.2,65.1C45,64.5 44.5,64.3 44,64.4C42.8,64.6 42.6,65.7 43.1,66.2C43.4,66.5 43.7,66.4 44.1,66.3C44.4,66.1 44.6,65.8 44.5,65.4C44.4,65.1 44.2,65 44,65C43.6,65.1 43.5,65.3 43.6,65.5C43.5,65.9 43.7,65.9 43.8,65.8Z" style="fill:rgb(189,156,38);fill-rule:nonzero;"/>
        <path d="M39.1,66.3C39,66.4 39.1,66.5 39,66.6C38.9,66.7 38.8,66.7 38.7,66.7C38.6,66.6 38.6,66.4 38.7,66.2C38.8,66 39,65.9 39.4,65.9C39.7,66 39.9,66.4 39.8,66.8C39.7,67.1 39.3,67.4 38.8,67.4C38.3,67.3 37.9,66.8 38.1,66.1C38.3,65.7 38.7,65.3 39.3,65.1C39.8,65 40.2,65 40.7,65.3C40.9,65 41.3,64.9 41.7,64.9C41.8,64.9 41.8,65 41.8,65C41.6,65.1 41.1,65.3 41.2,66.1C41.3,67 41,67.8 40.6,68.1C40.6,68.1 40.2,68.2 39.7,68.2C40,68.1 40.9,67.4 40.7,66.4C40.7,66.1 40.6,65.8 40.1,65.5C40.6,66.1 40.6,66.8 40.3,67.3C39.9,67.9 39.1,68.3 37.7,67.9C37.5,68.2 37.1,68.3 36.7,68.3C36.6,68.3 36.6,68.2 36.7,68.1C36.9,68 37.4,67.8 37.3,67C37.2,66.2 37.3,65.6 37.9,65C38,65 38.8,64.9 38.8,64.9C38.6,65 37.6,65.5 37.8,66.7C37.9,67.3 38.4,67.6 38.9,67.6C40.2,67.6 40.4,66.5 40,65.9C39.8,65.6 39.4,65.6 39.1,65.7C38.7,65.8 38.5,66.2 38.6,66.5C38.7,66.8 38.9,66.9 39.1,66.9C39.5,66.9 39.6,66.7 39.6,66.4C39.4,66.3 39.3,66.2 39.1,66.3Z" style="fill:rgb(189,156,38);fill-rule:nonzero;"/>
        <path d="M34.6,67.2C34.7,67.1 34.6,67.1 34.7,66.9C34.8,66.8 34.9,66.8 35,66.9C35.1,67 35.1,67.2 34.9,67.4C34.8,67.6 34.5,67.7 34.2,67.6C34,67.4 33.8,67 34,66.6C34.2,66.3 34.6,66.1 35.1,66.2C35.6,66.3 35.9,66.9 35.6,67.6C35.4,68 34.9,68.4 34.3,68.4C33.8,68.4 33.4,68.4 32.9,68C32.6,68.3 32.2,68.3 31.8,68.3C31.7,68.3 31.7,68.2 31.8,68.2C32,68.2 32.5,68 32.6,67.2C32.7,66.3 33,65.6 33.5,65.3L34.4,65.3C34,65.4 33.1,66 33.1,66.9C33.1,67.2 33.2,67.5 33.5,67.8C33,67.2 33.2,66.4 33.6,66C34.1,65.5 35,65.1 36.2,65.8C36.5,65.5 36.8,65.4 37.2,65.5C37.3,65.5 37.3,65.6 37.2,65.7C37,65.8 36.5,65.9 36.4,66.7C36.4,67.5 36.2,68.1 35.5,68.6L34.6,68.6C34.8,68.5 35.8,68.2 35.9,67C35.9,66.4 35.5,66 35,66C33.7,65.9 33.3,66.8 33.7,67.5C33.9,67.8 34.3,67.9 34.6,67.8C35,67.7 35.2,67.4 35.2,67.1C35.2,66.8 35,66.6 34.8,66.6C34.4,66.6 34.3,66.7 34.2,67C34.3,67.2 34.5,67.2 34.6,67.2Z" style="fill:rgb(189,156,38);fill-rule:nonzero;"/>
        <path d="M30,66.4C29.9,66.5 29.9,66.5 29.8,66.6C29.7,66.7 29.6,66.7 29.5,66.6C29.4,66.5 29.4,66.3 29.6,66.1C29.8,66 30,65.9 30.3,66C30.6,66.2 30.6,66.6 30.4,67C30.2,67.3 29.8,67.5 29.2,67.3C28.7,67.1 28.5,66.5 28.9,65.9C29.2,65.5 29.7,65.2 30.3,65.3C30.8,65.3 31.2,65.4 31.6,65.8C31.9,65.6 32.3,65.5 32.7,65.7C32.8,65.7 32.8,65.8 32.7,65.9C32.5,65.9 32,66 31.8,66.8C31.6,67.7 31.2,68.4 30.7,68.6C30.7,68.6 30.3,68.5 29.8,68.5C30.2,68.5 31.1,68 31.3,67.1C31.3,66.8 31.3,66.5 31,66.1C31.4,66.8 31.1,67.5 30.6,67.9C30.1,68.3 29.1,68.6 28,67.7C27.7,67.9 27.3,68 26.9,67.8C26.8,67.8 26.8,67.7 26.9,67.6C27.1,67.6 27.7,67.5 27.8,66.7C27.9,65.9 28.2,65.3 28.9,64.9C29,64.9 29.8,65 29.8,65C29.6,65.1 28.5,65.3 28.3,66.5C28.2,67.1 28.6,67.5 29.1,67.6C30.3,67.9 30.9,67 30.6,66.3C30.5,66 30.1,65.8 29.7,65.9C29.3,65.9 29,66.2 29,66.5C29,66.8 29.1,67 29.4,67C29.8,67.1 30,66.9 30,66.7C30.2,66.4 30.1,66.3 30,66.4Z" style="fill:rgb(189,156,38);fill-rule:nonzero;"/>
        <path d="M25.3,65.9C25.4,65.8 25.4,65.8 25.5,65.7C25.6,65.6 25.7,65.7 25.8,65.8C25.9,65.9 25.8,66.1 25.6,66.3C25.4,66.4 25.2,66.5 24.9,66.2C24.7,66 24.7,65.5 25,65.2C25.3,65 25.7,64.9 26.2,65.1C26.7,65.4 26.8,66 26.3,66.5C26,66.8 25.4,67 24.8,66.9C24.3,66.8 23.9,66.6 23.6,66.2C23.3,66.4 22.9,66.3 22.5,66.1C22.4,66 22.4,65.9 22.5,65.9C22.7,65.9 23.2,66 23.5,65.2C23.8,64.3 24.4,63.8 24.9,63.6C24.9,63.6 25.3,63.7 25.8,63.9C25.4,63.9 24.4,64.2 24.1,65.1C24,65.4 24,65.7 24.2,66.1C23.9,65.4 24.3,64.7 24.8,64.4C25.4,64.1 26.3,64 27.4,65C27.7,64.8 28.1,64.8 28.5,65.1C28.6,65.1 28.6,65.2 28.5,65.2C28.3,65.2 27.7,65.2 27.5,65.9C27.3,66.6 26.9,67.2 26.1,67.4C26,67.4 25.2,67.1 25.2,67.1C25.4,67.1 26.5,67 26.9,65.9C27.1,65.3 26.8,64.8 26.3,64.7C25.1,64.2 24.5,65 24.6,65.8C24.7,66.2 25,66.3 25.4,66.4C25.8,66.4 26.1,66.2 26.2,65.9C26.3,65.6 26.1,65.4 25.9,65.3C25.5,65.2 25.3,65.3 25.2,65.5C25.1,65.8 25.2,65.9 25.3,65.9Z" style="fill:rgb(189,156,38);fill-rule:nonzero;"/>
        <path d="M21.1,63.8C21,63.8 21,63.9 20.9,64C20.8,64 20.7,64 20.6,63.9C20.6,63.8 20.6,63.6 20.9,63.5C21.1,63.4 21.4,63.4 21.6,63.7C21.8,63.9 21.7,64.4 21.4,64.6C21.1,64.8 20.7,64.9 20.2,64.5C19.8,64.2 19.8,63.5 20.3,63.1C20.7,62.8 21.2,62.7 21.9,62.9C22.4,63.1 22.7,63.3 23,63.8C23.4,63.7 23.7,63.8 24.1,64C24.2,64.1 24.1,64.2 24.1,64.1C23.9,64.1 23.4,63.9 23,64.7C22.6,65.5 21.9,66 21.4,66.1C21.4,66.1 21,65.9 20.6,65.7C21,65.8 22,65.6 22.4,64.8C22.5,64.6 22.6,64.2 22.4,63.8C22.6,64.6 22.1,65.2 21.5,65.4C20.9,65.6 19.9,65.6 19,64.5C18.7,64.6 18.3,64.6 18,64.3C18,64.1 18,64 18.1,64C18.3,64 18.9,64.1 19.2,63.4C19.5,62.7 20,62.2 20.8,62C20.9,62.1 21.6,62.4 21.6,62.4C21.4,62.4 20.3,62.3 19.8,63.4C19.5,64 19.8,64.5 20.2,64.7C21.3,65.4 22.1,64.6 22,63.9C22,63.5 21.7,63.3 21.3,63.2C20.9,63.1 20.6,63.3 20.4,63.6C20.3,63.9 20.4,64.1 20.6,64.2C20.9,64.4 21.2,64.3 21.3,64.1C21.4,63.9 21.3,63.8 21.1,63.8Z" style="fill:rgb(189,156,38);fill-rule:nonzero;"/>
        <path d="M16.9,62.1C17,62.1 17,62 17.1,62C17.2,62 17.3,62 17.4,62.1C17.4,62.2 17.3,62.4 17.1,62.5C16.9,62.6 16.6,62.5 16.4,62.2C16.2,61.9 16.4,61.5 16.7,61.3C17,61.1 17.5,61.2 17.9,61.6C18.3,62 18.2,62.6 17.6,63C17.2,63.2 16.6,63.3 16,63C15.6,62.8 15.2,62.5 15,62C14.6,62.1 14.3,61.9 14,61.6C13.9,61.5 14,61.4 14.1,61.5C14.3,61.6 14.8,61.8 15.3,61.1C15.9,60.4 16.5,60 17.1,60C17.1,60 17.5,60.2 17.8,60.5C17.5,60.4 16.4,60.4 15.8,61.2C15.7,61.4 15.5,61.8 15.7,62.2C15.7,61.4 16.2,60.9 16.8,60.7C17.5,60.6 18.4,60.7 19.1,62C19.5,61.9 19.8,62 20.1,62.3C20.1,62.4 20.1,62.5 20,62.4C19.8,62.4 19.3,62.2 18.8,62.8C18.4,63.4 17.8,63.8 17,63.9C16.9,63.8 16.3,63.4 16.3,63.4C16.5,63.5 17.6,63.7 18.3,62.7C18.6,62.2 18.4,61.6 18.1,61.3C17.1,60.5 16.2,61.1 16.2,61.9C16.2,62.3 16.4,62.5 16.8,62.7C17.2,62.8 17.5,62.7 17.7,62.4C17.9,62.1 17.8,61.9 17.6,61.8C17.3,61.6 17.1,61.6 16.9,61.8C16.6,61.9 16.7,62.1 16.9,62.1Z" style="fill:rgb(189,156,38);fill-rule:nonzero;"/>
        <path d="M13.4,58.9C13.3,58.9 13.3,59 13.1,59C13,59 12.9,58.9 12.9,58.8C12.9,58.7 13,58.5 13.3,58.5C13.5,58.5 13.8,58.5 13.9,58.8C14,59.1 13.8,59.5 13.5,59.7C13.2,59.8 12.7,59.7 12.4,59.3C12.1,58.9 12.3,58.2 12.9,57.9C13.3,57.7 13.9,57.8 14.5,58.1C14.9,58.4 15.2,58.7 15.3,59.3C15.7,59.3 16,59.5 16.3,59.8C16.4,59.9 16.3,60 16.2,59.9C16.1,59.8 15.6,59.6 15,60.2C14.3,60.9 13.6,61.2 13.1,61.1C13.1,61.1 12.8,60.8 12.4,60.5C12.7,60.7 13.8,60.8 14.4,60.1C14.6,59.9 14.8,59.6 14.7,59.1C14.6,59.9 14,60.3 13.4,60.4C12.7,60.5 11.8,60.2 11.3,58.8C10.9,58.8 10.6,58.7 10.3,58.3C10.3,58.2 10.3,58.1 10.4,58.2C10.6,58.3 11.1,58.5 11.6,57.9C12.1,57.3 12.7,57 13.5,57C13.6,57.1 14.2,57.6 14.2,57.6C14,57.5 13,57.1 12.2,58C11.8,58.5 11.9,59 12.2,59.4C13.1,60.3 14,59.9 14.2,59.1C14.3,58.7 14,58.4 13.7,58.3C13.4,58.1 13,58.2 12.8,58.4C12.6,58.7 12.7,58.9 12.8,59.1C13.1,59.3 13.3,59.3 13.5,59.2C13.6,59.1 13.5,58.9 13.4,58.9Z" style="fill:rgb(189,156,38);fill-rule:nonzero;"/>
        <path d="M9.8,56C9.9,56 9.9,55.9 10.1,55.9C10.2,55.9 10.3,56 10.3,56.1C10.3,56.2 10.1,56.4 9.9,56.4C9.7,56.4 9.4,56.3 9.3,56C9.2,55.7 9.5,55.3 9.9,55.2C10.2,55.1 10.7,55.3 10.9,55.8C11.1,56.3 10.9,56.9 10.2,57.1C9.7,57.2 9.2,57.1 8.7,56.6C8.3,56.2 8,55.9 8,55.3C7.6,55.3 7.3,55 7.1,54.7C7.1,54.6 7.1,54.5 7.2,54.6C7.3,54.7 7.8,55 8.4,54.5C9.2,53.9 9.9,53.8 10.4,53.9C10.4,53.9 10.7,54.2 11,54.6C10.7,54.4 9.7,54.1 8.9,54.7C8.7,54.9 8.4,55.2 8.5,55.6C8.7,54.8 9.4,54.5 10,54.5C10.7,54.6 11.5,55 11.8,56.4C12.2,56.4 12.5,56.7 12.7,57C12.7,57.1 12.7,57.2 12.6,57.1C12.4,57 12,56.7 11.4,57.2C10.8,57.7 10.2,57.9 9.4,57.8C9.3,57.7 8.8,57.1 8.8,57.1C9,57.2 9.9,57.8 10.9,57C11.4,56.6 11.3,56 11.1,55.6C10.4,54.6 9.4,54.9 9.1,55.6C9,55.9 9.2,56.3 9.4,56.5C9.7,56.7 10.1,56.7 10.3,56.5C10.5,56.3 10.5,56 10.4,55.9C10.2,55.6 9.9,55.6 9.7,55.7C9.6,55.8 9.6,56 9.8,56Z" style="fill:rgb(189,156,38);fill-rule:nonzero;"/>
        <path d="M7.3,52L7,52C6.9,52 6.8,51.9 6.8,51.8C6.8,51.7 7,51.6 7.2,51.6C7.4,51.6 7.6,51.8 7.7,52.1C7.7,52.4 7.5,52.8 7,52.8C6.7,52.8 6.2,52.6 6.1,52.1C6,51.6 6.4,51 7.1,50.9C7.6,50.9 8.1,51.1 8.5,51.6C8.8,52 9,52.4 8.9,52.9C9.3,53 9.6,53.3 9.7,53.6C9.7,53.7 9.6,53.8 9.6,53.7C9.5,53.6 9.1,53.2 8.4,53.6C7.6,54.1 6.8,54.1 6.3,53.9C6.3,53.9 6.1,53.5 5.8,53.1C6.1,53.4 7.1,53.8 7.9,53.3C8.1,53.1 8.4,52.9 8.5,52.4C8.2,53.1 7.5,53.4 6.9,53.3C6.2,53.2 5.4,52.6 5.3,51.2C4.9,51.1 4.6,50.9 4.5,50.5C4.5,50.4 4.5,50.3 4.6,50.4C4.7,50.5 5.2,50.9 5.8,50.5C6.5,50.1 7.1,49.9 7.9,50.2C8,50.3 8.4,51 8.4,51C8.2,50.9 7.4,50.2 6.3,50.8C5.8,51.1 5.7,51.7 5.9,52.1C6.5,53.2 7.5,53.1 7.9,52.4C8.1,52.1 7.9,51.7 7.7,51.5C7.4,51.2 7,51.2 6.8,51.4C6.5,51.6 6.5,51.8 6.6,52C6.8,52.3 7,52.4 7.3,52.3C7.5,52.2 7.5,52.1 7.3,52Z" style="fill:rgb(189,156,38);fill-rule:nonzero;"/>
        <path d="M4.7,48.2C4.8,48.3 4.8,48.2 5,48.2C5.1,48.2 5.2,48.3 5.1,48.5C5,48.6 4.9,48.7 4.6,48.6C4.4,48.5 4.2,48.4 4.2,48C4.2,47.7 4.5,47.4 5,47.4C5.3,47.4 5.7,47.7 5.8,48.3C5.9,48.8 5.5,49.3 4.8,49.3C4.3,49.3 3.8,49 3.5,48.4C3.2,48 3.1,47.6 3.2,47C2.8,46.9 2.6,46.5 2.5,46.1C2.5,46 2.6,46 2.6,46C2.7,46.1 3,46.6 3.8,46.3C4.7,46 5.5,46 5.9,46.3C5.9,46.3 6.1,46.7 6.3,47.1C6.1,46.8 5.2,46.2 4.3,46.6C4.1,46.7 3.7,46.9 3.6,47.4C4,46.7 4.8,46.6 5.3,46.8C5.9,47 6.6,47.7 6.5,49.1C6.8,49.2 7.1,49.5 7.2,49.9C7.2,50 7.1,50 7.1,50C7,49.9 6.6,49.4 5.9,49.7C5.2,50 4.5,50.1 3.8,49.7C3.8,49.6 3.4,48.9 3.4,48.9C3.6,49.1 4.3,49.8 5.4,49.4C6,49.2 6.2,48.6 6,48.2C5.6,47 4.6,47 4.1,47.6C3.9,47.9 4,48.3 4.2,48.6C4.4,48.9 4.8,49 5.1,48.9C5.4,48.8 5.4,48.5 5.4,48.3C5.3,48 5,47.9 4.8,47.9C4.5,47.9 4.5,48.1 4.7,48.2Z" style="fill:rgb(189,156,38);fill-rule:nonzero;"/>
        <path d="M3.5,43.6C3.4,43.5 3.4,43.6 3.2,43.6C3.1,43.5 3.1,43.4 3.1,43.3C3.2,43.2 3.4,43.1 3.6,43.2C3.8,43.3 4,43.5 3.9,43.8C3.8,44.1 3.5,44.4 3.1,44.3C2.8,44.2 2.4,43.9 2.4,43.3C2.4,42.8 2.9,42.3 3.6,42.4C4,42.6 4.5,43 4.7,43.6C4.9,44 5,44.5 4.8,45C5.1,45.2 5.3,45.5 5.4,45.9C5.4,46 5.3,46 5.3,46C5.2,45.8 5,45.4 4.1,45.5C3.2,45.7 2.4,45.6 2,45.2C2,45.2 1.9,44.8 1.8,44.3C2,44.6 2.8,45.3 3.7,45.1C4,45 4.3,44.9 4.5,44.4C4,45 3.2,45.1 2.7,44.8C2.1,44.5 1.5,43.7 1.8,42.3C1.5,42.1 1.3,41.8 1.3,41.4C1.3,41.3 1.4,41.3 1.4,41.4C1.5,41.6 1.8,42 2.5,41.8C3.3,41.6 3.9,41.6 4.6,42.1C4.6,42.2 4.8,43 4.8,43C4.6,42.9 4,42 2.8,42.3C2.2,42.5 2,43 2.1,43.5C2.3,44.7 3.4,44.9 3.9,44.3C4.2,44 4.1,43.7 3.9,43.3C3.8,43 3.5,42.9 3.2,43C2.9,43.1 2.8,43.3 2.9,43.6C2.9,43.9 3.1,44 3.4,44C3.6,43.9 3.6,43.7 3.5,43.6Z" style="fill:rgb(189,156,38);fill-rule:nonzero;"/>
        <path d="M2,39.2C2.1,39.3 2.1,39.2 2.3,39.3C2.4,39.4 2.4,39.5 2.4,39.6C2.3,39.7 2.1,39.7 1.9,39.6C1.7,39.5 1.6,39.3 1.7,38.9C1.8,38.6 2.2,38.4 2.6,38.6C2.9,38.7 3.2,39.1 3.1,39.7C3,40.2 2.5,40.6 1.8,40.4C1.4,40.2 1,39.8 0.8,39.2C0.7,38.7 0.7,38.3 1,37.8C0.7,37.6 0.6,37.2 0.6,36.8C0.6,36.7 0.7,36.7 0.7,36.7C0.7,36.9 0.9,37.4 1.8,37.3C2.7,37.2 3.5,37.5 3.8,37.9C3.8,37.9 3.8,38.3 3.9,38.8C3.7,38.4 3,37.6 2,37.7C1.7,37.7 1.4,37.8 1.1,38.3C1.7,37.8 2.4,37.8 2.9,38.2C3.4,38.6 3.9,39.4 3.4,40.8C3.7,41 3.8,41.4 3.8,41.8C3.8,41.9 3.7,41.9 3.6,41.8C3.5,41.6 3.3,41.1 2.5,41.2C1.7,41.3 1.1,41.1 0.5,40.6C0.5,40.5 0.4,39.7 0.4,39.7C0.5,39.9 1,40.9 2.2,40.7C2.8,40.6 3.1,40.1 3.1,39.6C3.1,38.3 2,38.1 1.4,38.5C1.1,38.7 1.1,39.1 1.2,39.4C1.3,39.8 1.7,40 2,39.9C2.3,39.8 2.4,39.6 2.4,39.4C2.4,39 2.2,38.9 1.9,38.9C1.9,38.9 1.9,39.1 2,39.2Z" style="fill:rgb(189,156,38);fill-rule:nonzero;"/>
        <path d="M2.1,34.5C2,34.4 2,34.5 1.8,34.4C1.7,34.3 1.7,34.2 1.8,34.1C1.9,34 2.2,34 2.3,34.2C2.5,34.3 2.6,34.6 2.5,34.9C2.4,35.2 1.9,35.3 1.6,35.1C1.3,35 1,34.6 1.1,34C1.2,33.5 1.8,33.2 2.5,33.5C2.9,33.7 3.3,34.2 3.3,34.8C3.3,35.3 3.3,35.7 2.9,36.2C3.2,36.5 3.3,36.9 3.2,37.3C3.2,37.4 3.1,37.4 3.1,37.3C3.1,37.1 2.9,36.6 2.1,36.5C1.2,36.4 0.5,36.1 0.2,35.6L0.2,34.7C0.3,35.1 0.9,36 1.8,36C2.1,36 2.4,35.9 2.7,35.6C2.1,36.1 1.3,35.9 0.9,35.5C0.4,35 -0,34.1 0.7,32.9C0.4,32.6 0.3,32.3 0.4,31.9C0.4,31.8 0.5,31.8 0.6,31.9C0.7,32.1 0.8,32.6 1.6,32.6C2.4,32.6 3,32.8 3.5,33.5L3.5,34.4C3.4,34.2 3.1,33.2 1.8,33.1C1.2,33.1 0.8,33.6 0.8,34C0.7,35.3 1.6,35.7 2.3,35.3C2.6,35.1 2.7,34.7 2.6,34.4C2.5,34 2.2,33.8 1.9,33.8C1.6,33.8 1.4,34 1.4,34.2C1.4,34.6 1.5,34.7 1.8,34.8C2.1,34.8 2.2,34.7 2.1,34.5Z" style="fill:rgb(189,156,38);fill-rule:nonzero;"/>
        <path d="M1.9,29.9C2,30 2.1,30 2.2,30.1C2.3,30.2 2.3,30.3 2.2,30.4C2.1,30.5 1.9,30.4 1.7,30.3C1.6,30.1 1.5,29.9 1.7,29.6C1.9,29.3 2.3,29.3 2.7,29.5C3,29.7 3.1,30.1 2.9,30.7C2.7,31.2 2.1,31.4 1.5,31C1.1,30.7 0.8,30.2 0.9,29.6C0.9,29.1 1,28.7 1.5,28.3C1.3,28 1.2,27.6 1.4,27.2C1.4,27.1 1.5,27.1 1.6,27.2C1.6,27.4 1.6,27.9 2.5,28.1C3.4,28.3 4.1,28.8 4.2,29.2C4.2,29.2 4.1,29.6 4.1,30.1C4.1,29.7 3.6,28.7 2.7,28.6C2.4,28.6 2.1,28.6 1.7,28.9C2.4,28.5 3.1,28.8 3.5,29.3C3.9,29.8 4.2,30.8 3.3,31.9C3.5,32.2 3.6,32.6 3.4,33C3.4,33.1 3.3,33.1 3.2,33C3.2,32.8 3.1,32.2 2.3,32.1C1.5,32 1,31.7 0.6,31C0.6,30.9 0.7,30.1 0.7,30.1C0.8,30.3 0.9,31.4 2.1,31.6C2.7,31.7 3.1,31.3 3.2,30.8C3.5,29.6 2.6,29 1.9,29.3C1.6,29.4 1.4,29.8 1.5,30.2C1.5,30.6 1.8,30.9 2.1,30.9C2.4,30.9 2.6,30.8 2.6,30.5C2.7,30.1 2.5,29.9 2.3,29.9C2,29.6 1.9,29.8 1.9,29.9Z" style="fill:rgb(189,156,38);fill-rule:nonzero;"/>
        <path d="M3.4,25.4C3.3,25.3 3.3,25.3 3.2,25.2C3.1,25.1 3.2,25 3.3,24.9C3.4,24.8 3.6,24.9 3.8,25.1C3.9,25.3 4,25.5 3.8,25.8C3.6,26 3.1,26 2.8,25.8C2.6,25.6 2.4,25.1 2.7,24.6C3,24.1 3.6,24 4.1,24.5C4.4,24.8 4.6,25.4 4.5,26C4.4,26.5 4.3,26.9 3.8,27.2C4,27.5 4,27.9 3.8,28.3C3.7,28.4 3.6,28.4 3.6,28.3C3.6,28.1 3.6,27.6 2.9,27.3C2,27 1.4,26.4 1.3,25.9C1.3,25.9 1.4,25.5 1.6,25C1.6,25.4 1.9,26.4 2.8,26.7C3.1,26.8 3.4,26.8 3.8,26.5C3,26.9 2.3,26.6 2,26.1C1.7,25.5 1.5,24.6 2.5,23.5C2.3,23.2 2.3,22.8 2.5,22.4C2.5,22.3 2.6,22.3 2.7,22.4C2.7,22.6 2.7,23.2 3.4,23.4C4.1,23.6 4.7,24 5,24.8C5,24.9 4.7,25.7 4.7,25.7C4.7,25.5 4.6,24.4 3.5,24C2.9,23.8 2.5,24.2 2.3,24.6C1.8,25.8 2.6,26.4 3.4,26.3C3.8,26.2 4,25.9 4,25.5C4,25.1 3.8,24.8 3.5,24.7C3.1,24.6 3,24.8 2.9,25C2.8,25.4 2.9,25.6 3.1,25.7C3.3,25.7 3.4,25.6 3.4,25.4Z" style="fill:rgb(189,156,38);fill-rule:nonzero;"/>
        <path d="M4.5,20.9C4.5,21 4.6,21 4.7,21.1C4.7,21.2 4.7,21.3 4.6,21.4C4.5,21.4 4.3,21.4 4.2,21.1C4.1,21 4,20.7 4.3,20.5C4.5,20.3 5,20.4 5.2,20.7C5.4,21 5.4,21.4 5.1,21.9C4.8,22.3 4.1,22.3 3.7,21.8C3.4,21.4 3.3,20.9 3.5,20.2C3.7,19.7 3.9,19.4 4.4,19.1C4.3,18.7 4.4,18.4 4.6,18C4.7,17.9 4.8,18 4.7,18C4.7,18.2 4.5,18.7 5.3,19.1C6.1,19.6 6.6,20.2 6.6,20.7C6.6,20.7 6.4,21.1 6.2,21.5C6.3,21.1 6.1,20.1 5.3,19.6C5.1,19.5 4.7,19.4 4.3,19.6C5.1,19.5 5.7,20 6,20.6C6.2,21.2 6.2,22.2 5,23.1C5.1,23.4 5.1,23.8 4.8,24.1C4.7,24.2 4.6,24.1 4.7,24C4.7,23.8 4.8,23.2 4.1,22.9C3.4,22.6 2.9,22.1 2.8,21.3C2.9,21.2 3.2,20.5 3.2,20.5C3.2,20.7 3.1,21.8 4.1,22.4C4.6,22.7 5.2,22.4 5.4,22C6.1,20.9 5.4,20.1 4.6,20.1C4.2,20.1 4,20.4 3.9,20.8C3.8,21.2 4,21.5 4.3,21.7C4.6,21.8 4.8,21.7 4.9,21.5C5.1,21.2 5,20.9 4.8,20.8C4.6,20.7 4.5,20.8 4.5,20.9Z" style="fill:rgb(189,156,38);fill-rule:nonzero;"/>
        <path d="M7.1,17.1C7.1,17 7,17 7,16.9C7,16.8 7,16.7 7.1,16.6C7.2,16.6 7.4,16.7 7.5,16.9C7.5,17.1 7.5,17.4 7.2,17.6C6.9,17.8 6.5,17.6 6.3,17.3C6.1,17 6.2,16.5 6.6,16.1C7,15.7 7.6,15.8 8,16.4C8.2,16.8 8.3,17.4 8,18C7.8,18.4 7.5,18.8 7,19C7.1,19.4 6.9,19.7 6.6,20C6.5,20.1 6.4,20 6.5,19.9C6.6,19.7 6.8,19.2 6.1,18.7C5.3,18.1 5,17.5 5,16.9C5,16.9 5.2,16.5 5.5,16.2C5.4,16.5 5.4,17.6 6.2,18.2C6.4,18.3 6.8,18.5 7.2,18.3C6.4,18.3 5.9,17.8 5.7,17.2C5.6,16.5 5.7,15.6 7,14.9C6.9,14.5 7,14.2 7.3,13.9C7.4,13.9 7.5,13.9 7.4,14C7.4,14.2 7.2,14.7 7.8,15.2C8.4,15.6 8.8,16.2 8.9,17C8.8,17.1 8.4,17.7 8.4,17.7C8.5,17.5 8.7,16.4 7.7,15.7C7.2,15.4 6.6,15.6 6.3,15.9C5.5,16.9 6.1,17.8 6.9,17.8C7.3,17.8 7.5,17.6 7.7,17.2C7.8,16.8 7.7,16.5 7.4,16.3C7.1,16.1 6.9,16.2 6.8,16.4C6.6,16.7 6.6,16.9 6.8,17.1C7,17.3 7.1,17.2 7.1,17.1Z" style="fill:rgb(189,156,38);fill-rule:nonzero;"/>
        <path d="M9.5,13.1C9.5,13.2 9.6,13.2 9.6,13.4C9.6,13.5 9.5,13.6 9.4,13.6C9.3,13.6 9.1,13.5 9.1,13.2C9.1,13 9.1,12.7 9.5,12.6C9.8,12.5 10.2,12.7 10.4,13.1C10.5,13.4 10.4,13.9 10,14.2C9.6,14.5 8.9,14.3 8.6,13.7C8.4,13.2 8.5,12.7 8.9,12.1C9.2,11.7 9.5,11.4 10.1,11.3C10.1,10.9 10.3,10.6 10.6,10.3C10.7,10.2 10.8,10.3 10.7,10.4C10.6,10.5 10.3,11 10.9,11.6C11.6,12.3 11.8,13 11.7,13.5C11.7,13.5 11.4,13.8 11.1,14.2C11.3,13.9 11.4,12.8 10.7,12.2C10.5,12 10.2,11.8 9.7,11.9C10.5,12 10.9,12.6 11,13.2C11,13.9 10.8,14.8 9.4,15.3C9.4,15.7 9.2,16 8.9,16.2C8.8,16.2 8.7,16.2 8.8,16.1C8.9,15.9 9.1,15.4 8.6,14.9C8,14.4 7.6,13.8 7.7,13C7.8,12.9 8.3,12.3 8.3,12.3C8.2,12.5 7.8,13.5 8.7,14.3C9.2,14.7 9.7,14.6 10.1,14.3C11,13.5 10.6,12.5 9.8,12.3C9.4,12.2 9.1,12.5 9,12.8C8.8,13.1 8.9,13.5 9.1,13.7C9.4,13.9 9.6,13.9 9.8,13.7C10,13.5 10,13.2 9.8,13C9.7,12.9 9.5,13 9.5,13.1Z" style="fill:rgb(189,156,38);fill-rule:nonzero;"/>
        <path d="M13.1,10.1C13.1,10 13,10 13,9.9C13,9.8 13.1,9.7 13.2,9.7C13.3,9.7 13.5,9.9 13.5,10.1C13.5,10.3 13.4,10.6 13.1,10.7C12.8,10.8 12.4,10.6 12.3,10.1C12.2,9.8 12.4,9.3 12.9,9.1C13.4,8.9 14,9.1 14.2,9.8C14.3,10.3 14.2,10.8 13.7,11.3C13.4,11.6 13,11.9 12.4,11.9C12.4,12.3 12.1,12.6 11.8,12.8C11.7,12.9 11.6,12.8 11.7,12.7C11.8,12.6 12.1,12.1 11.6,11.5C11,10.8 10.8,10 11,9.5C11,9.5 11.3,9.2 11.7,8.9C11.5,9.2 11.2,10.2 11.8,11C12,11.2 12.3,11.4 12.7,11.4C11.9,11.2 11.6,10.5 11.6,10C11.6,9.3 12.1,8.5 13.5,8.1C13.5,7.7 13.7,7.4 14.1,7.2C14.2,7.2 14.3,7.2 14.2,7.3C14.1,7.5 13.8,8 14.3,8.5C14.8,9.1 15,9.7 14.9,10.5C14.8,10.6 14.2,11.1 14.2,11.1C14.3,10.9 14.8,10 14.1,9C13.7,8.5 13.1,8.6 12.7,8.8C11.7,9.5 12,10.5 12.7,10.8C13,10.9 13.4,10.7 13.6,10.4C13.8,10.1 13.8,9.7 13.6,9.5C13.4,9.3 13.1,9.3 13,9.4C12.7,9.6 12.7,9.9 12.8,10.1C12.9,10.3 13.1,10.3 13.1,10.1Z" style="fill:rgb(189,156,38);fill-rule:nonzero;"/>
        <path d="M16.5,6.9L16.5,7.2C16.5,7.3 16.4,7.4 16.3,7.4C16.2,7.4 16.1,7.2 16.1,7C16.1,6.8 16.3,6.6 16.6,6.5C16.9,6.5 17.3,6.8 17.3,7.2C17.3,7.5 17.1,8 16.6,8.1C16.1,8.3 15.5,7.9 15.5,7.2C15.5,6.7 15.7,6.2 16.2,5.8C16.6,5.5 17,5.3 17.6,5.4C17.7,5 18,4.8 18.4,4.6C18.5,4.6 18.6,4.7 18.5,4.7C18.4,4.8 18,5.2 18.4,5.9C18.8,6.7 18.9,7.5 18.7,8C18.7,8 18.3,8.2 17.9,8.5C18.2,8.2 18.6,7.3 18.1,6.4C18,6.2 17.7,5.9 17.2,5.8C17.9,6.1 18.2,6.8 18.1,7.4C18,8.1 17.4,8.8 16,9C15.9,9.4 15.6,9.6 15.3,9.8C15.2,9.8 15.1,9.8 15.2,9.7C15.3,9.6 15.7,9.1 15.3,8.5C14.9,7.8 14.8,7.2 15,6.4C15.1,6.3 15.8,5.9 15.8,5.9C15.7,6.1 15,6.9 15.6,8C15.9,8.5 16.5,8.6 16.9,8.4C18,7.9 17.9,6.8 17.2,6.4C16.9,6.2 16.5,6.4 16.3,6.6C16,6.9 16,7.2 16.2,7.5C16.4,7.8 16.6,7.8 16.8,7.7C17.1,7.5 17.2,7.3 17.1,7.1C16.7,6.8 16.6,6.8 16.5,6.9Z" style="fill:rgb(189,156,38);fill-rule:nonzero;"/>
        <path d="M20.8,5.1C20.9,5 20.8,5 20.8,4.8C20.8,4.7 20.9,4.6 21.1,4.7C21.2,4.8 21.3,4.9 21.3,5.2C21.2,5.4 21.1,5.6 20.7,5.6C20.4,5.6 20.1,5.3 20.1,4.8C20.1,4.5 20.4,4.1 20.9,4C21.4,3.9 21.9,4.3 21.9,5C21.9,5.5 21.6,6 21,6.3C20.6,6.5 20.2,6.7 19.6,6.5C19.5,6.9 19.1,7.1 18.7,7.2C18.6,7.2 18.6,7.1 18.6,7.1C18.9,7 19.3,6.7 19,5.9C18.7,5 18.7,4.2 19,3.8C19,3.8 19.4,3.6 19.8,3.4C19.5,3.6 18.9,4.5 19.3,5.4C19.4,5.6 19.6,6 20.1,6.1C19.4,5.7 19.3,5 19.4,4.4C19.6,3.8 20.3,3.1 21.7,3.1C21.8,2.8 22.1,2.5 22.5,2.4C22.6,2.4 22.7,2.5 22.6,2.5C22.5,2.6 22,3 22.3,3.7C22.6,4.4 22.7,5.1 22.3,5.8C22.2,5.8 21.5,6.2 21.5,6.2C21.7,6 22.4,5.3 22,4.2C21.8,3.6 21.2,3.5 20.7,3.7C19.5,4.1 19.5,5.2 20.1,5.6C20.4,5.8 20.8,5.7 21.1,5.5C21.4,5.3 21.5,4.9 21.4,4.6C21.2,4.3 21,4.3 20.8,4.3C20.5,4.4 20.4,4.7 20.4,4.9C20.6,5.2 20.7,5.2 20.8,5.1Z" style="fill:rgb(189,156,38);fill-rule:nonzero;"/>
        <path d="M25,3C24.9,3.1 25,3.1 25,3.3C24.9,3.4 24.8,3.4 24.7,3.4C24.6,3.3 24.5,3.1 24.6,2.9C24.7,2.7 24.9,2.5 25.2,2.6C25.5,2.7 25.8,3 25.7,3.4C25.6,3.7 25.3,4.1 24.7,4.1C24.2,4.1 23.7,3.6 23.8,2.9C24,2.4 24.3,2 24.9,1.8C25.4,1.6 25.8,1.5 26.3,1.8C26.5,1.5 26.8,1.3 27.2,1.3C27.3,1.3 27.3,1.4 27.3,1.4C27.1,1.5 26.7,1.7 26.8,2.6C27,3.5 26.8,4.3 26.5,4.7C26.5,4.7 26.1,4.8 25.6,4.9C25.9,4.7 26.6,3.9 26.4,3C26.3,2.7 26.2,2.4 25.7,2.2C26.3,2.7 26.4,3.5 26.1,4C25.8,4.6 25,5.2 23.6,4.9C23.4,5.2 23.1,5.4 22.7,5.4C22.6,5.4 22.6,5.3 22.7,5.3C22.9,5 23.4,4.7 23.2,4C23,3.2 23,2.6 23.5,1.9C23.6,1.9 24.4,1.7 24.4,1.7C24.2,1.8 23.3,2.5 23.6,3.6C23.8,4.2 24.3,4.4 24.8,4.3C26,4.1 26.2,3 25.6,2.5C25.3,2.2 25,2.3 24.6,2.4C24.3,2.6 24.1,2.9 24.2,3.3C24.3,3.6 24.5,3.7 24.7,3.7C25.1,3.6 25.2,3.4 25.1,3.2C25.2,2.9 25.1,2.9 25,3Z" style="fill:rgb(189,156,38);fill-rule:nonzero;"/>
        <path d="M29.6,2.5C29.7,2.4 29.6,2.4 29.7,2.2C29.8,2.1 29.9,2.1 30,2.1C30.1,2.2 30.1,2.4 30,2.6C29.9,2.8 29.7,2.9 29.3,2.9C29,2.8 28.8,2.4 29,2C29.1,1.7 29.5,1.4 30,1.4C30.5,1.5 30.9,2 30.7,2.7C30.5,3.1 30.1,3.5 29.5,3.7C29,3.8 28.6,3.8 28.1,3.5C27.9,3.8 27.5,3.9 27.1,3.9C27,3.9 27,3.8 27,3.8C27.2,3.7 27.7,3.5 27.6,2.7C27.5,1.8 27.8,1 28.2,0.7C28.2,0.7 28.6,0.6 29.1,0.6C28.8,0.7 27.9,1.4 28.1,2.4C28.1,2.7 28.2,3 28.7,3.3C28.2,2.7 28.2,2 28.6,1.5C29,0.9 29.8,0.5 31.2,0.9C31.4,0.6 31.8,0.5 32.2,0.5C32.3,0.5 32.3,0.6 32.2,0.7C32,0.7 31.4,1 31.5,1.7C31.6,2.5 31.5,3.1 30.9,3.7C30.8,3.7 30,3.8 30,3.8C30.2,3.7 31.2,3.2 31,2C31,1.4 30.5,1.1 30,1.2C28.7,1.2 28.5,2.3 28.9,2.9C29.1,3.2 29.5,3.2 29.8,3.1C30.1,3 30.3,2.6 30.3,2.3C30.2,2 30,1.9 29.8,1.9C29.4,1.9 29.3,2.1 29.3,2.4C29.4,2.5 29.5,2.6 29.6,2.5Z" style="fill:rgb(189,156,38);fill-rule:nonzero;"/>
        <path d="M33.8,36.4C33.8,36.3 33.9,36.3 34,36.4C34,36.5 34,36.7 34.3,36.7C34.5,36.7 34.5,36.5 34.5,36.4C34.5,36.3 34.6,36.3 34.6,36.4C34.7,36.6 34.8,36.9 34.5,37.2L34.5,37.5C34.5,37.6 34.3,37.6 34.1,37.6C34,37.6 34,37.7 34.1,37.7C34.1,37.7 34.4,37.8 34.5,37.7C34.7,37.6 34.8,37.6 35,37.7C35.4,37.8 35.9,38.2 36,39C36,39 36.2,40.5 36.2,41.1C36.2,41.4 36.4,42 36.8,42.3C37.1,42.6 37.6,43 37.7,43.7C36.3,42.4 32.2,42.4 30.7,43.7C30.8,43 31.3,42.6 31.6,42.3C32,41.9 32.2,41.4 32.2,41.1C32.2,41.1 32.4,39.5 32.4,39C32.5,38.2 33.1,37.8 33.4,37.7C33.6,37.6 33.9,37.6 33.9,37.5L33.9,37.2C33.8,37.1 33.7,36.8 33.8,36.4Z" style="fill:rgb(52,43,43);fill-rule:nonzero;"/>
        <path d="M32.7,42.8C32.9,42.8 34.6,42.4 36.2,42.9C36.6,43 37.3,43.3 37.7,43.6C37.7,43.8 37.7,44.1 37.6,44.3C37,44.8 36.2,45.3 34.4,45.3C32.3,45.3 31.5,44.9 30.9,44.3C30.6,44 30.8,43.7 30.9,43.5C31.2,43.3 31.9,43 32.7,42.8Z" style="fill:white;fill-rule:nonzero;"/>
        <path d="M32.5,43C33.7,42.8 34.8,42.8 35.9,43C35.9,43 37,43.3 37.5,43.7C37.8,43.9 37.8,44.2 37.5,44.4C37.3,44.5 36.9,44.9 35.9,45.2C34.9,45.4 33.7,45.4 32.5,45.2C31.6,45 31.3,44.7 30.9,44.4C30.7,44.1 30.6,43.9 30.9,43.7C31,43.6 31.1,43.6 31.1,43.5C31.1,43.5 31.2,43.6 31.3,43.7C30.9,43.8 31,44.2 32,44.5C32.8,44.8 33.3,44.9 34.7,44.9C36.1,44.8 36.7,44.3 37.1,44C37.2,43.9 37.1,43.9 37,43.9C36.9,44 36.6,44.2 36.4,44.3C36.3,44.4 35.8,44.4 35.6,44.4C35.9,44.3 36.2,44.2 36.3,44.1C36.3,44.1 36.3,44 36.2,44L35.2,44C35.1,44.1 35,44 35,44C34.9,43.9 34.9,43.6 34.9,43.5C34.9,43.3 34.8,43.4 34.8,43.5C34.8,43.8 34.9,44.5 34.1,44.4C33.9,44.4 33.9,44.3 34,44.2C34.3,44 34.3,43.2 33.7,43.3C33.3,43.4 33.1,44.2 33.8,44.6C34,44.7 34.5,44.7 34.9,44.7C35.4,44.6 35.9,44.6 36.2,44.6C35.7,44.8 35.3,45 34.1,45C33,45 32.6,44.9 32,44.6C31.4,44.4 30.9,44 31.3,43.9C31.5,44.1 32,44.4 32.4,44.4C32.6,44.4 32.8,44.5 33.2,44.4C33.3,44.4 33.3,44.3 33.2,44.3C33.2,44.3 32.2,44 31.7,43.3C31.9,43.2 32.2,43.1 32.5,43Z" style="fill:rgb(52,43,43);fill-rule:nonzero;"/>
        <path d="M34.7,38.7C34.7,38.6 34.7,38.3 34.9,38.3C35.1,38.3 35.3,38.5 35.3,38.7L34.7,38.7Z" style="fill:white;fill-rule:nonzero;"/>
        <path d="M34.7,39.1L35.4,39.1C35.4,39.1 35.6,40.4 35.7,41.4L34.8,41.4L34.7,39.1Z" style="fill:white;fill-rule:nonzero;"/>
        <path d="M34.9,41.8C35,41.9 35,42.3 35.1,42.5C35.7,42.6 36.1,42.7 36.6,42.9C36.5,42.7 36.2,42.2 35.8,41.9C35.5,41.8 35.2,41.8 34.9,41.8Z" style="fill:white;fill-rule:nonzero;"/>
        <path d="M33.5,38.8C33.3,39.1 33.2,39.5 33.1,40.5C33,41 33,41.3 32.9,41.5C32.9,41.5 33.4,41.4 33.6,41.4C33.6,41.1 33.6,39.3 33.5,38.8Z" style="fill:white;fill-rule:nonzero;"/>
        <path d="M31.4,42.5C31.5,42.4 31.9,42.1 32.6,42C33.1,41.9 33.3,41.9 33.7,41.9C33.8,41.9 33.9,42 33.9,42.1L33.9,42.7C33.3,42.7 31.7,42.9 30.7,43.7C30.7,43.4 31,42.8 31.4,42.5Z" style="fill:white;fill-rule:nonzero;"/>
        <path d="M28,30.3C31.3,28.4 37.1,28.3 40.6,30.3L40.6,31.5L40.2,31.8L40.2,32.5C40.3,32.6 40.5,32.7 40.6,32.9L40.6,34.6C40.5,34.9 39.9,35.9 36.7,36.4C35.3,36.6 33,36.6 31.7,36.4C29.2,35.9 28.2,35 28,34.6L28,32.9C28.1,32.8 28.3,32.6 28.4,32.5L28.4,31.8L28,31.5L28,30.3Z" style="fill:rgb(52,43,43);fill-rule:nonzero;"/>
        <path d="M40.2,32.3C37.1,30.6 32.2,30.5 28.4,32.3L28.4,32.5C28.2,32.6 28.1,32.8 28,32.9L28,34.5C28.1,34.7 28.3,34.8 28.5,35C28.8,34.9 33.5,33.4 33.5,33.4C33.2,33.4 32.1,33.2 32.1,33.2C31.8,33.3 28.2,34.4 28.2,34.4C28.2,34.4 28.5,33.7 29.6,33.3C29.9,33.4 30.2,33.4 30.2,33.4C30.5,33.3 32.8,32.6 32.8,32.6C34,32.5 36.5,32.2 38.8,33.2L34.6,34.4C34.4,34.2 34.1,34.3 34,34.5L32,35.1C32.5,35.2 33.7,35.4 33.7,35.4C33.9,35.3 34.1,35.3 34.1,35.3L34.1,35.6C33.7,35.7 32.1,36.2 32.1,36.2C32.3,36.2 32.9,36.3 33.1,36.3L33.1,36.1C33.3,36 34.1,35.8 34.1,35.8L34.1,36C34,36 33.8,36.1 33.8,36.3L34,36.3C34,36.2 34.2,36.1 34.2,36.3L34.7,36.3C34.7,36.2 34.8,36.1 34.9,36.3C35.3,36.3 36.2,36.2 36.6,36.2L36.2,36.2C36.3,36.2 39.1,35.3 39.2,35.2C39.1,35.2 38.9,35.1 38.8,35.1C38.2,35.3 35.6,36.2 35.3,36.3L35,36.3C34.9,36.1 34.9,36.1 34.8,36L34.8,35.7C35,35.6 37.9,34.8 37.9,34.8C37.7,34.7 37.4,34.7 37.4,34.7C37.1,34.8 34.8,35.5 34.8,35.5L34.8,35.2C35.1,35.1 40.1,33.7 40.1,33.7C40.4,33.8 40.7,34.1 40.8,34.2L40.8,33.9C40.4,33.6 39.4,33.1 38.7,32.8L38.7,31.6C38.7,31.6 38.4,31.5 37.7,31.3L37.7,32.5C37.7,32.5 37.2,32.4 36.8,32.4L36.8,31.2L36.7,31.2L36.7,32.4L36.5,32.4L36.5,31.2C36.2,31.2 35.8,31.1 35.3,31.1L35.3,32.3C34.4,32.3 32.2,32.4 30.6,32.9L30.6,31.7C30.4,31.7 30.3,31.8 30.1,31.9L30.1,33.1C30,33.2 29.8,33.2 29.6,33.3L29.6,32.1C32.7,30.9 37.1,30.6 40.5,32.4L40.2,32.3Z" style="fill:white;fill-rule:nonzero;"/>
        <path d="M29.8,29.5C30,29.4 30.1,29.4 30.3,29.4L30.3,30.6C31.7,30.2 33.2,30.1 35.1,30.1L35.1,28.9C35.5,28.9 35.9,29 36.3,29L36.3,30.3L36.5,30.3L36.5,29.1L36.7,29.1L36.7,30.3C36.9,30.3 37.4,30.4 37.5,30.4L37.5,29.2C37.5,29.2 38.2,29.4 38.5,29.5L38.5,30.7C38.5,30.7 39.9,31.1 40.5,31.6L40.1,31.9C37.1,30.3 32.3,30.1 28.4,31.9L28,31.5L28,30.3C28.5,30 28.8,29.9 29.3,29.7L29.3,30.9C29.5,30.8 29.8,30.7 29.8,30.7L29.8,29.5Z" style="fill:white;fill-rule:nonzero;"/>
        <path d="M34.1,34.8C34.1,34.6 34.4,34.6 34.5,34.8L34.5,36.3C34.5,36.5 34.2,36.5 34.2,36.3C34.1,36 34.1,34.8 34.1,34.8Z" style="fill:rgb(52,43,43);fill-rule:nonzero;"/>
        <path d="M31.8,28.8C31.6,27.6 31.2,22.1 26.1,22.4C23.7,22.6 22.7,24.9 22.6,26.3L22.1,40.4C22,40.6 21.9,40.9 21.8,41.1C21.8,41.3 21.5,51.1 21.5,51.1C21.7,51.3 22.3,51.7 22.3,51.7L22.5,41.8C22.5,41.4 22.5,41.2 22.3,40.9C22.1,40.7 22.4,40.6 22.4,40.7C22.5,40.8 22.7,41 22.7,41.5C22.7,41.7 22.5,51.8 22.5,51.8C22.6,51.8 22.7,51.9 22.7,51.9C22.7,51.6 23,41.1 23,41.1C23,40.8 22.8,40.4 22.8,40.4L23.3,26.5C23.3,25.4 24,23.2 26.1,23C27.3,23 30.5,22.9 31,28.9C31.4,28.9 31.5,28.9 31.8,28.8Z" style="fill:rgb(52,43,43);fill-rule:nonzero;"/>
        <path d="M37.1,28.9C37.3,27.7 37.7,22.2 42.8,22.5C45.2,22.7 46.2,25 46.3,26.4L46.8,40.5C46.9,40.7 47,41 47.1,41.2C47.1,41.4 47.4,51.2 47.4,51.2C47.3,51.3 47.2,51.3 47.2,51.3L46.9,41.8C46.9,41.4 46.8,41 46.6,40.9C46.4,40.8 46.3,41 46.4,41C46.5,41.1 46.6,41.1 46.7,41.6C46.7,41.9 47,51.5 47,51.5C46.9,51.5 46.2,52 46.2,52C46.2,51.7 45.9,41.2 45.9,41.2C45.9,40.9 46.1,40.5 46.1,40.5L45.6,26.6C45.6,25.5 44.9,23.3 42.8,23.1C41.6,23.1 38.4,23 37.9,29C37.6,29 37.3,28.9 37.1,28.9Z" style="fill:rgb(52,43,43);fill-rule:nonzero;"/>
        <path d="M29.8,29.3C29.7,29 29.5,27.4 27.5,27.4C26.7,27.4 25.1,28.3 25,30.5L24.6,46.2C24.5,46.4 24.3,46.8 24.3,46.8L24.2,52.5C24.3,52.5 25.1,52.8 25.1,52.8C25.1,52.6 25.2,47.2 25.2,47.2C25.2,47 25.2,46.8 24.9,46.6C24.8,46.5 24.9,46.4 25,46.4C25.1,46.5 25.4,46.6 25.4,47C25.4,47.4 25.3,52.8 25.3,52.8L25.5,52.8C25.5,52.6 25.6,46.7 25.6,46.7C25.5,46.6 25.3,46.1 25.3,46.1C25.3,45.9 25.7,30.6 25.7,30.6C25.7,30.2 25.8,28.2 27.6,28C28.4,27.9 29,28.7 29.1,29.4C29.4,29.5 29.8,29.3 29.8,29.3Z" style="fill:rgb(52,43,43);fill-rule:nonzero;"/>
        <path d="M38.9,29.4C39,29.1 39.2,27.5 41.2,27.5C42,27.5 43.6,28.4 43.7,30.6L44.1,46.3C44.2,46.5 44.4,46.9 44.4,46.9L44.5,52.9C44.4,52.9 44.3,53 44.3,53C44.3,52.8 44.2,47.4 44.2,47.4C44.2,47.2 44.1,46.9 43.8,46.8C43.6,46.8 43.6,46.9 43.7,47C43.8,47.1 43.9,47.1 44,47.5C44,47.9 44.1,53.2 44.1,53.2C43.9,53.3 43.3,53.4 43.2,53.5L43.2,47.1C43.2,47 43.5,46.5 43.5,46.5C43.5,46.3 43.1,31 43.1,31C43.1,30.6 43,28.6 41.2,28.4C40.4,28.3 39.8,29.2 39.7,29.9C39.3,29.5 38.9,29.4 38.9,29.4Z" style="fill:rgb(52,43,43);fill-rule:nonzero;"/>
        <path d="M22.5,40.9C22.5,40.8 22.6,40.7 22.7,40.8C22.8,40.9 23,41.2 23,41.6C23,41.7 22.9,44.2 22.9,44.2L22.7,44.2C22.7,44.1 22.8,41.7 22.8,41.7C22.7,41.5 22.7,41.1 22.5,40.9Z" style="fill:white;fill-rule:nonzero;"/>
        <path d="M46.3,41C46.2,40.9 46.3,40.8 46.4,40.9C46.5,40.9 46.7,41.1 46.7,41.8C46.7,42 46.8,44.3 46.8,44.3L46.6,44.3C46.6,44.2 46.5,41.8 46.5,41.8C46.5,41.6 46.5,41.1 46.3,41Z" style="fill:white;fill-rule:nonzero;"/>
    </g>
</svg>
